<?xml version="1.0" encoding="utf-8" standalone="no"?>
<!DOCTYPE svg PUBLIC "-//W3C//DTD SVG 1.1//EN"
  "http://www.w3.org/Graphics/SVG/1.1/DTD/svg11.dtd">
<!-- Created with matplotlib (https://matplotlib.org/) -->
<svg height="300.690125pt" version="1.1" viewBox="0 0 397.923125 300.690125" width="397.923125pt" xmlns="http://www.w3.org/2000/svg" xmlns:xlink="http://www.w3.org/1999/xlink">
 <defs>
  <style type="text/css">
*{stroke-linecap:butt;stroke-linejoin:round;}
  </style>
 </defs>
 <g id="figure_1">
  <g id="patch_1">
   <path d="M 0 300.690125 
L 397.923125 300.690125 
L 397.923125 0 
L 0 0 
z
" style="fill:#ffffff;"/>
  </g>
  <g id="axes_1">
   <g id="patch_2">
    <path d="M 30.103125 131.66 
L 387.223125 131.66 
L 387.223125 10.7 
L 30.103125 10.7 
z
" style="fill:#ffffff;"/>
   </g>
   <g id="matplotlib.axis_1">
    <g id="xtick_1">
     <g id="line2d_1">
      <defs>
       <path d="M 0 0 
L 0 3.5 
" id="m80189d6a1f" style="stroke:#000000;stroke-width:0.8;"/>
      </defs>
      <g>
       <use style="stroke:#000000;stroke-width:0.8;" x="39.968828" xlink:href="#m80189d6a1f" y="131.66"/>
      </g>
     </g>
     <g id="text_1">
      <!-- 5000 -->
      <defs>
       <path d="M 10.796875 72.90625 
L 49.515625 72.90625 
L 49.515625 64.59375 
L 19.828125 64.59375 
L 19.828125 46.734375 
Q 21.96875 47.46875 24.109375 47.828125 
Q 26.265625 48.1875 28.421875 48.1875 
Q 40.625 48.1875 47.75 41.5 
Q 54.890625 34.8125 54.890625 23.390625 
Q 54.890625 11.625 47.5625 5.09375 
Q 40.234375 -1.421875 26.90625 -1.421875 
Q 22.3125 -1.421875 17.546875 -0.640625 
Q 12.796875 0.140625 7.71875 1.703125 
L 7.71875 11.625 
Q 12.109375 9.234375 16.796875 8.0625 
Q 21.484375 6.890625 26.703125 6.890625 
Q 35.15625 6.890625 40.078125 11.328125 
Q 45.015625 15.765625 45.015625 23.390625 
Q 45.015625 31 40.078125 35.4375 
Q 35.15625 39.890625 26.703125 39.890625 
Q 22.75 39.890625 18.8125 39.015625 
Q 14.890625 38.140625 10.796875 36.28125 
z
" id="DejaVuSans-53"/>
       <path d="M 31.78125 66.40625 
Q 24.171875 66.40625 20.328125 58.90625 
Q 16.5 51.421875 16.5 36.375 
Q 16.5 21.390625 20.328125 13.890625 
Q 24.171875 6.390625 31.78125 6.390625 
Q 39.453125 6.390625 43.28125 13.890625 
Q 47.125 21.390625 47.125 36.375 
Q 47.125 51.421875 43.28125 58.90625 
Q 39.453125 66.40625 31.78125 66.40625 
z
M 31.78125 74.21875 
Q 44.046875 74.21875 50.515625 64.515625 
Q 56.984375 54.828125 56.984375 36.375 
Q 56.984375 17.96875 50.515625 8.265625 
Q 44.046875 -1.421875 31.78125 -1.421875 
Q 19.53125 -1.421875 13.0625 8.265625 
Q 6.59375 17.96875 6.59375 36.375 
Q 6.59375 54.828125 13.0625 64.515625 
Q 19.53125 74.21875 31.78125 74.21875 
z
" id="DejaVuSans-48"/>
      </defs>
      <g transform="translate(27.243828 146.258437)scale(0.1 -0.1)">
       <use xlink:href="#DejaVuSans-53"/>
       <use x="63.623047" xlink:href="#DejaVuSans-48"/>
       <use x="127.246094" xlink:href="#DejaVuSans-48"/>
       <use x="190.869141" xlink:href="#DejaVuSans-48"/>
      </g>
     </g>
    </g>
    <g id="xtick_2">
     <g id="line2d_2">
      <g>
       <use style="stroke:#000000;stroke-width:0.8;" x="103.639067" xlink:href="#m80189d6a1f" y="131.66"/>
      </g>
     </g>
     <g id="text_2">
      <!-- 6000 -->
      <defs>
       <path d="M 33.015625 40.375 
Q 26.375 40.375 22.484375 35.828125 
Q 18.609375 31.296875 18.609375 23.390625 
Q 18.609375 15.53125 22.484375 10.953125 
Q 26.375 6.390625 33.015625 6.390625 
Q 39.65625 6.390625 43.53125 10.953125 
Q 47.40625 15.53125 47.40625 23.390625 
Q 47.40625 31.296875 43.53125 35.828125 
Q 39.65625 40.375 33.015625 40.375 
z
M 52.59375 71.296875 
L 52.59375 62.3125 
Q 48.875 64.0625 45.09375 64.984375 
Q 41.3125 65.921875 37.59375 65.921875 
Q 27.828125 65.921875 22.671875 59.328125 
Q 17.53125 52.734375 16.796875 39.40625 
Q 19.671875 43.65625 24.015625 45.921875 
Q 28.375 48.1875 33.59375 48.1875 
Q 44.578125 48.1875 50.953125 41.515625 
Q 57.328125 34.859375 57.328125 23.390625 
Q 57.328125 12.15625 50.6875 5.359375 
Q 44.046875 -1.421875 33.015625 -1.421875 
Q 20.359375 -1.421875 13.671875 8.265625 
Q 6.984375 17.96875 6.984375 36.375 
Q 6.984375 53.65625 15.1875 63.9375 
Q 23.390625 74.21875 37.203125 74.21875 
Q 40.921875 74.21875 44.703125 73.484375 
Q 48.484375 72.75 52.59375 71.296875 
z
" id="DejaVuSans-54"/>
      </defs>
      <g transform="translate(90.914067 146.258437)scale(0.1 -0.1)">
       <use xlink:href="#DejaVuSans-54"/>
       <use x="63.623047" xlink:href="#DejaVuSans-48"/>
       <use x="127.246094" xlink:href="#DejaVuSans-48"/>
       <use x="190.869141" xlink:href="#DejaVuSans-48"/>
      </g>
     </g>
    </g>
    <g id="xtick_3">
     <g id="line2d_3">
      <g>
       <use style="stroke:#000000;stroke-width:0.8;" x="167.309305" xlink:href="#m80189d6a1f" y="131.66"/>
      </g>
     </g>
     <g id="text_3">
      <!-- 7000 -->
      <defs>
       <path d="M 8.203125 72.90625 
L 55.078125 72.90625 
L 55.078125 68.703125 
L 28.609375 0 
L 18.3125 0 
L 43.21875 64.59375 
L 8.203125 64.59375 
z
" id="DejaVuSans-55"/>
      </defs>
      <g transform="translate(154.584305 146.258437)scale(0.1 -0.1)">
       <use xlink:href="#DejaVuSans-55"/>
       <use x="63.623047" xlink:href="#DejaVuSans-48"/>
       <use x="127.246094" xlink:href="#DejaVuSans-48"/>
       <use x="190.869141" xlink:href="#DejaVuSans-48"/>
      </g>
     </g>
    </g>
    <g id="xtick_4">
     <g id="line2d_4">
      <g>
       <use style="stroke:#000000;stroke-width:0.8;" x="230.979544" xlink:href="#m80189d6a1f" y="131.66"/>
      </g>
     </g>
     <g id="text_4">
      <!-- 8000 -->
      <defs>
       <path d="M 31.78125 34.625 
Q 24.75 34.625 20.71875 30.859375 
Q 16.703125 27.09375 16.703125 20.515625 
Q 16.703125 13.921875 20.71875 10.15625 
Q 24.75 6.390625 31.78125 6.390625 
Q 38.8125 6.390625 42.859375 10.171875 
Q 46.921875 13.96875 46.921875 20.515625 
Q 46.921875 27.09375 42.890625 30.859375 
Q 38.875 34.625 31.78125 34.625 
z
M 21.921875 38.8125 
Q 15.578125 40.375 12.03125 44.71875 
Q 8.5 49.078125 8.5 55.328125 
Q 8.5 64.0625 14.71875 69.140625 
Q 20.953125 74.21875 31.78125 74.21875 
Q 42.671875 74.21875 48.875 69.140625 
Q 55.078125 64.0625 55.078125 55.328125 
Q 55.078125 49.078125 51.53125 44.71875 
Q 48 40.375 41.703125 38.8125 
Q 48.828125 37.15625 52.796875 32.3125 
Q 56.78125 27.484375 56.78125 20.515625 
Q 56.78125 9.90625 50.3125 4.234375 
Q 43.84375 -1.421875 31.78125 -1.421875 
Q 19.734375 -1.421875 13.25 4.234375 
Q 6.78125 9.90625 6.78125 20.515625 
Q 6.78125 27.484375 10.78125 32.3125 
Q 14.796875 37.15625 21.921875 38.8125 
z
M 18.3125 54.390625 
Q 18.3125 48.734375 21.84375 45.5625 
Q 25.390625 42.390625 31.78125 42.390625 
Q 38.140625 42.390625 41.71875 45.5625 
Q 45.3125 48.734375 45.3125 54.390625 
Q 45.3125 60.0625 41.71875 63.234375 
Q 38.140625 66.40625 31.78125 66.40625 
Q 25.390625 66.40625 21.84375 63.234375 
Q 18.3125 60.0625 18.3125 54.390625 
z
" id="DejaVuSans-56"/>
      </defs>
      <g transform="translate(218.254544 146.258437)scale(0.1 -0.1)">
       <use xlink:href="#DejaVuSans-56"/>
       <use x="63.623047" xlink:href="#DejaVuSans-48"/>
       <use x="127.246094" xlink:href="#DejaVuSans-48"/>
       <use x="190.869141" xlink:href="#DejaVuSans-48"/>
      </g>
     </g>
    </g>
    <g id="xtick_5">
     <g id="line2d_5">
      <g>
       <use style="stroke:#000000;stroke-width:0.8;" x="294.649782" xlink:href="#m80189d6a1f" y="131.66"/>
      </g>
     </g>
     <g id="text_5">
      <!-- 9000 -->
      <defs>
       <path d="M 10.984375 1.515625 
L 10.984375 10.5 
Q 14.703125 8.734375 18.5 7.8125 
Q 22.3125 6.890625 25.984375 6.890625 
Q 35.75 6.890625 40.890625 13.453125 
Q 46.046875 20.015625 46.78125 33.40625 
Q 43.953125 29.203125 39.59375 26.953125 
Q 35.25 24.703125 29.984375 24.703125 
Q 19.046875 24.703125 12.671875 31.3125 
Q 6.296875 37.9375 6.296875 49.421875 
Q 6.296875 60.640625 12.9375 67.421875 
Q 19.578125 74.21875 30.609375 74.21875 
Q 43.265625 74.21875 49.921875 64.515625 
Q 56.59375 54.828125 56.59375 36.375 
Q 56.59375 19.140625 48.40625 8.859375 
Q 40.234375 -1.421875 26.421875 -1.421875 
Q 22.703125 -1.421875 18.890625 -0.6875 
Q 15.09375 0.046875 10.984375 1.515625 
z
M 30.609375 32.421875 
Q 37.25 32.421875 41.125 36.953125 
Q 45.015625 41.5 45.015625 49.421875 
Q 45.015625 57.28125 41.125 61.84375 
Q 37.25 66.40625 30.609375 66.40625 
Q 23.96875 66.40625 20.09375 61.84375 
Q 16.21875 57.28125 16.21875 49.421875 
Q 16.21875 41.5 20.09375 36.953125 
Q 23.96875 32.421875 30.609375 32.421875 
z
" id="DejaVuSans-57"/>
      </defs>
      <g transform="translate(281.924782 146.258437)scale(0.1 -0.1)">
       <use xlink:href="#DejaVuSans-57"/>
       <use x="63.623047" xlink:href="#DejaVuSans-48"/>
       <use x="127.246094" xlink:href="#DejaVuSans-48"/>
       <use x="190.869141" xlink:href="#DejaVuSans-48"/>
      </g>
     </g>
    </g>
    <g id="xtick_6">
     <g id="line2d_6">
      <g>
       <use style="stroke:#000000;stroke-width:0.8;" x="358.32002" xlink:href="#m80189d6a1f" y="131.66"/>
      </g>
     </g>
     <g id="text_6">
      <!-- 10000 -->
      <defs>
       <path d="M 12.40625 8.296875 
L 28.515625 8.296875 
L 28.515625 63.921875 
L 10.984375 60.40625 
L 10.984375 69.390625 
L 28.421875 72.90625 
L 38.28125 72.90625 
L 38.28125 8.296875 
L 54.390625 8.296875 
L 54.390625 0 
L 12.40625 0 
z
" id="DejaVuSans-49"/>
      </defs>
      <g transform="translate(342.41377 146.258437)scale(0.1 -0.1)">
       <use xlink:href="#DejaVuSans-49"/>
       <use x="63.623047" xlink:href="#DejaVuSans-48"/>
       <use x="127.246094" xlink:href="#DejaVuSans-48"/>
       <use x="190.869141" xlink:href="#DejaVuSans-48"/>
       <use x="254.492188" xlink:href="#DejaVuSans-48"/>
      </g>
     </g>
    </g>
   </g>
   <g id="matplotlib.axis_2">
    <g id="ytick_1">
     <g id="line2d_7">
      <defs>
       <path d="M 0 0 
L -3.5 0 
" id="mfdf02192ac" style="stroke:#000000;stroke-width:0.8;"/>
      </defs>
      <g>
       <use style="stroke:#000000;stroke-width:0.8;" x="30.103125" xlink:href="#mfdf02192ac" y="126.161818"/>
      </g>
     </g>
     <g id="text_7">
      <!-- 0.0 -->
      <defs>
       <path d="M 10.6875 12.40625 
L 21 12.40625 
L 21 0 
L 10.6875 0 
z
" id="DejaVuSans-46"/>
      </defs>
      <g transform="translate(7.2 129.961037)scale(0.1 -0.1)">
       <use xlink:href="#DejaVuSans-48"/>
       <use x="63.623047" xlink:href="#DejaVuSans-46"/>
       <use x="95.410156" xlink:href="#DejaVuSans-48"/>
      </g>
     </g>
    </g>
    <g id="ytick_2">
     <g id="line2d_8">
      <g>
       <use style="stroke:#000000;stroke-width:0.8;" x="30.103125" xlink:href="#mfdf02192ac" y="104.169091"/>
      </g>
     </g>
     <g id="text_8">
      <!-- 0.2 -->
      <defs>
       <path d="M 19.1875 8.296875 
L 53.609375 8.296875 
L 53.609375 0 
L 7.328125 0 
L 7.328125 8.296875 
Q 12.9375 14.109375 22.625 23.890625 
Q 32.328125 33.6875 34.8125 36.53125 
Q 39.546875 41.84375 41.421875 45.53125 
Q 43.3125 49.21875 43.3125 52.78125 
Q 43.3125 58.59375 39.234375 62.25 
Q 35.15625 65.921875 28.609375 65.921875 
Q 23.96875 65.921875 18.8125 64.3125 
Q 13.671875 62.703125 7.8125 59.421875 
L 7.8125 69.390625 
Q 13.765625 71.78125 18.9375 73 
Q 24.125 74.21875 28.421875 74.21875 
Q 39.75 74.21875 46.484375 68.546875 
Q 53.21875 62.890625 53.21875 53.421875 
Q 53.21875 48.921875 51.53125 44.890625 
Q 49.859375 40.875 45.40625 35.40625 
Q 44.1875 33.984375 37.640625 27.21875 
Q 31.109375 20.453125 19.1875 8.296875 
z
" id="DejaVuSans-50"/>
      </defs>
      <g transform="translate(7.2 107.96831)scale(0.1 -0.1)">
       <use xlink:href="#DejaVuSans-48"/>
       <use x="63.623047" xlink:href="#DejaVuSans-46"/>
       <use x="95.410156" xlink:href="#DejaVuSans-50"/>
      </g>
     </g>
    </g>
    <g id="ytick_3">
     <g id="line2d_9">
      <g>
       <use style="stroke:#000000;stroke-width:0.8;" x="30.103125" xlink:href="#mfdf02192ac" y="82.176364"/>
      </g>
     </g>
     <g id="text_9">
      <!-- 0.4 -->
      <defs>
       <path d="M 37.796875 64.3125 
L 12.890625 25.390625 
L 37.796875 25.390625 
z
M 35.203125 72.90625 
L 47.609375 72.90625 
L 47.609375 25.390625 
L 58.015625 25.390625 
L 58.015625 17.1875 
L 47.609375 17.1875 
L 47.609375 0 
L 37.796875 0 
L 37.796875 17.1875 
L 4.890625 17.1875 
L 4.890625 26.703125 
z
" id="DejaVuSans-52"/>
      </defs>
      <g transform="translate(7.2 85.975582)scale(0.1 -0.1)">
       <use xlink:href="#DejaVuSans-48"/>
       <use x="63.623047" xlink:href="#DejaVuSans-46"/>
       <use x="95.410156" xlink:href="#DejaVuSans-52"/>
      </g>
     </g>
    </g>
    <g id="ytick_4">
     <g id="line2d_10">
      <g>
       <use style="stroke:#000000;stroke-width:0.8;" x="30.103125" xlink:href="#mfdf02192ac" y="60.183636"/>
      </g>
     </g>
     <g id="text_10">
      <!-- 0.6 -->
      <g transform="translate(7.2 63.982855)scale(0.1 -0.1)">
       <use xlink:href="#DejaVuSans-48"/>
       <use x="63.623047" xlink:href="#DejaVuSans-46"/>
       <use x="95.410156" xlink:href="#DejaVuSans-54"/>
      </g>
     </g>
    </g>
    <g id="ytick_5">
     <g id="line2d_11">
      <g>
       <use style="stroke:#000000;stroke-width:0.8;" x="30.103125" xlink:href="#mfdf02192ac" y="38.190909"/>
      </g>
     </g>
     <g id="text_11">
      <!-- 0.8 -->
      <g transform="translate(7.2 41.990128)scale(0.1 -0.1)">
       <use xlink:href="#DejaVuSans-48"/>
       <use x="63.623047" xlink:href="#DejaVuSans-46"/>
       <use x="95.410156" xlink:href="#DejaVuSans-56"/>
      </g>
     </g>
    </g>
    <g id="ytick_6">
     <g id="line2d_12">
      <g>
       <use style="stroke:#000000;stroke-width:0.8;" x="30.103125" xlink:href="#mfdf02192ac" y="16.198182"/>
      </g>
     </g>
     <g id="text_12">
      <!-- 1.0 -->
      <g transform="translate(7.2 19.997401)scale(0.1 -0.1)">
       <use xlink:href="#DejaVuSans-49"/>
       <use x="63.623047" xlink:href="#DejaVuSans-46"/>
       <use x="95.410156" xlink:href="#DejaVuSans-48"/>
      </g>
     </g>
    </g>
   </g>
   <g id="line2d_13">
    <path clip-path="url(#pa4963e955d)" d="M 46.335852 126.161818 
L 46.908884 126.161818 
L 46.972555 16.198182 
L 47.099895 126.161818 
L 47.354576 126.161818 
L 47.481917 16.198182 
L 47.927608 16.198182 
L 47.991278 126.161818 
L 48.118619 16.198182 
L 48.182289 16.198182 
L 48.30963 126.161818 
L 58.751549 126.161818 
L 58.878889 16.198182 
L 59.0699 16.198182 
L 59.19724 126.161818 
L 59.579262 126.161818 
L 59.706602 16.198182 
L 59.833943 126.161818 
L 63.908838 126.161818 
L 63.972508 16.198182 
L 64.099849 126.161818 
L 64.227189 126.161818 
L 64.290859 16.198182 
L 64.4182 126.161818 
L 67.09235 126.161818 
L 67.15602 16.198182 
L 67.283361 126.161818 
L 68.747776 126.161818 
L 68.875117 16.198182 
L 68.938787 16.198182 
L 69.066127 126.161818 
L 71.485596 126.161818 
L 71.612937 16.198182 
L 71.994958 16.198182 
L 72.058629 126.161818 
L 72.122299 16.198182 
L 72.249639 126.161818 
L 72.886342 126.161818 
L 72.950012 16.198182 
L 73.077352 126.161818 
L 73.141023 16.198182 
L 73.268363 126.161818 
L 73.395704 126.161818 
L 73.459374 16.198182 
L 73.586714 126.161818 
L 82.818899 126.161818 
L 82.882569 16.198182 
L 82.946239 126.161818 
L 83.00991 16.198182 
L 83.13725 126.161818 
L 83.646612 126.161818 
L 83.773952 16.198182 
L 84.537995 16.198182 
L 84.665336 126.161818 
L 84.856346 126.161818 
L 84.983687 16.198182 
L 87.721507 16.198182 
L 87.785177 126.161818 
L 87.912518 16.198182 
L 88.230869 16.198182 
L 88.294539 126.161818 
L 88.42188 16.198182 
L 89.631614 16.198182 
L 89.758955 126.161818 
L 89.886295 126.161818 
L 89.949966 16.198182 
L 90.013636 126.161818 
L 90.140976 16.198182 
L 90.714008 16.198182 
L 90.777679 126.161818 
L 90.841349 16.198182 
L 90.905019 126.161818 
L 91.03236 16.198182 
L 94.088531 16.198182 
L 94.152201 126.161818 
L 94.279542 16.198182 
L 94.470552 16.198182 
L 94.534223 126.161818 
L 94.597893 16.198182 
L 94.725233 126.161818 
L 94.852574 126.161818 
L 94.979914 16.198182 
L 95.871298 16.198182 
L 95.998638 126.161818 
L 96.062308 126.161818 
L 96.189649 16.198182 
L 96.253319 126.161818 
L 96.38066 16.198182 
L 97.081032 16.198182 
L 97.144702 126.161818 
L 97.272043 16.198182 
L 97.972416 16.198182 
L 98.036086 126.161818 
L 98.163426 16.198182 
L 101.601619 16.198182 
L 101.72896 126.161818 
L 101.8563 16.198182 
L 103.830078 16.198182 
L 103.893748 126.161818 
L 104.021088 16.198182 
L 115.481731 16.198182 
L 115.609072 126.161818 
L 115.736412 16.198182 
L 115.800082 16.198182 
L 115.863753 126.161818 
L 115.991093 16.198182 
L 116.054763 16.198182 
L 116.118434 126.161818 
L 116.182104 16.198182 
L 116.309444 126.161818 
L 126.751363 126.161818 
L 126.878704 16.198182 
L 127.388066 16.198182 
L 127.451736 126.161818 
L 127.515406 16.198182 
L 127.642747 126.161818 
L 127.897428 126.161818 
L 128.024768 16.198182 
L 128.088438 16.198182 
L 128.215779 126.161818 
L 128.343119 126.161818 
L 128.47046 16.198182 
L 128.5978 16.198182 
L 128.725141 126.161818 
L 128.852481 126.161818 
L 128.979822 16.198182 
L 129.107162 16.198182 
L 129.234503 126.161818 
L 129.425513 126.161818 
L 129.552854 16.198182 
L 131.20828 16.198182 
L 131.27195 126.161818 
L 131.33562 16.198182 
L 131.462961 126.161818 
L 132.099663 126.161818 
L 132.163334 16.198182 
L 132.227004 126.161818 
L 132.354344 16.198182 
L 135.283175 16.198182 
L 135.346846 126.161818 
L 135.474186 16.198182 
L 135.601526 126.161818 
L 135.728867 126.161818 
L 135.792537 16.198182 
L 135.919878 126.161818 
L 136.047218 16.198182 
L 148.208234 16.198182 
L 148.335574 126.161818 
L 148.399244 16.198182 
L 148.526585 126.161818 
L 182.844843 126.161818 
L 182.972184 16.198182 
L 183.035854 126.161818 
L 183.099524 16.198182 
L 183.226865 126.161818 
L 187.23809 126.161818 
L 187.30176 16.198182 
L 187.429101 126.161818 
L 189.657559 126.161818 
L 189.784899 16.198182 
L 190.166921 16.198182 
L 190.294261 126.161818 
L 191.567666 126.161818 
L 191.631336 16.198182 
L 191.758677 126.161818 
L 192.077028 126.161818 
L 192.140698 16.198182 
L 192.268039 126.161818 
L 211.814802 126.161818 
L 211.878472 16.198182 
L 212.005813 126.161818 
L 214.10693 126.161818 
L 214.234271 16.198182 
L 214.488952 16.198182 
L 214.616292 126.161818 
L 214.679963 126.161818 
L 214.807303 16.198182 
L 214.998314 16.198182 
L 215.125654 126.161818 
L 215.252995 126.161818 
L 215.380335 16.198182 
L 215.507676 126.161818 
L 218.500177 126.161818 
L 218.563847 16.198182 
L 218.627517 126.161818 
L 218.754858 16.198182 
L 219.073209 16.198182 
L 219.200549 126.161818 
L 219.518901 126.161818 
L 219.582571 16.198182 
L 219.709911 126.161818 
L 219.773582 126.161818 
L 219.837252 16.198182 
L 219.964592 126.161818 
L 220.028263 126.161818 
L 220.155603 16.198182 
L 220.282944 126.161818 
L 220.410284 16.198182 
L 220.919646 16.198182 
L 221.046986 126.161818 
L 222.256721 126.161818 
L 222.384061 16.198182 
L 222.511402 126.161818 
L 226.331616 126.161818 
L 226.458957 16.198182 
L 226.586297 126.161818 
L 226.713638 16.198182 
L 226.777308 126.161818 
L 226.904648 16.198182 
L 227.095659 16.198182 
L 227.222999 126.161818 
L 227.41401 126.161818 
L 227.541351 16.198182 
L 228.623745 16.198182 
L 228.751085 126.161818 
L 229.196777 126.161818 
L 229.324117 16.198182 
L 230.215501 16.198182 
L 230.279171 126.161818 
L 230.406511 16.198182 
L 230.915873 16.198182 
L 231.043214 126.161818 
L 232.69864 126.161818 
L 232.76231 16.198182 
L 232.889651 126.161818 
L 232.953321 126.161818 
L 233.016991 16.198182 
L 233.080661 126.161818 
L 233.144332 16.198182 
L 233.271672 126.161818 
L 233.590023 126.161818 
L 233.717364 16.198182 
L 238.938323 16.198182 
L 239.001994 126.161818 
L 239.129334 16.198182 
L 239.256675 126.161818 
L 239.511355 126.161818 
L 239.638696 16.198182 
L 242.185506 16.198182 
L 242.312846 126.161818 
L 242.885878 126.161818 
L 243.013219 16.198182 
L 243.140559 16.198182 
L 243.2679 126.161818 
L 243.904602 126.161818 
L 244.031942 16.198182 
L 279.241584 16.198182 
L 279.368925 126.161818 
L 279.432595 16.198182 
L 279.559935 126.161818 
L 279.878287 126.161818 
L 279.941957 16.198182 
L 280.069297 126.161818 
L 283.252809 126.161818 
L 283.38015 16.198182 
L 283.50749 126.161818 
L 283.634831 126.161818 
L 283.762171 16.198182 
L 283.889512 126.161818 
L 284.016852 16.198182 
L 284.080522 16.198182 
L 284.144193 126.161818 
L 284.271533 16.198182 
L 284.335203 16.198182 
L 284.462544 126.161818 
L 284.526214 126.161818 
L 284.589884 16.198182 
L 284.717225 126.161818 
L 284.844565 16.198182 
L 285.290257 16.198182 
L 285.417597 126.161818 
L 285.735949 126.161818 
L 285.863289 16.198182 
L 286.308981 16.198182 
L 286.372651 126.161818 
L 286.499991 16.198182 
L 286.627332 126.161818 
L 289.174141 126.161818 
L 289.301482 16.198182 
L 289.428822 16.198182 
L 289.492493 126.161818 
L 289.619833 16.198182 
L 290.447546 16.198182 
L 290.511216 126.161818 
L 290.638557 16.198182 
L 290.829568 16.198182 
L 290.956908 126.161818 
L 291.975632 126.161818 
L 292.102972 16.198182 
L 292.230313 126.161818 
L 292.548664 126.161818 
L 292.676005 16.198182 
L 293.440047 16.198182 
L 293.567388 126.161818 
L 294.904463 126.161818 
L 295.031803 16.198182 
L 296.241538 16.198182 
L 296.368878 126.161818 
L 297.005581 126.161818 
L 297.069251 16.198182 
L 297.196591 126.161818 
L 297.514943 126.161818 
L 297.578613 16.198182 
L 297.705953 126.161818 
L 299.998082 126.161818 
L 300.125422 16.198182 
L 300.252763 126.161818 
L 301.653508 126.161818 
L 301.780849 16.198182 
L 301.844519 16.198182 
L 301.971859 126.161818 
L 302.353881 126.161818 
L 302.481221 16.198182 
L 302.990583 16.198182 
L 303.117924 126.161818 
L 303.308934 126.161818 
L 303.436275 16.198182 
L 304.646009 16.198182 
L 304.77335 126.161818 
L 307.320159 126.161818 
L 307.38383 16.198182 
L 307.51117 126.161818 
L 309.612288 126.161818 
L 309.675958 16.198182 
L 309.739628 126.161818 
L 309.866969 16.198182 
L 310.567342 16.198182 
L 310.631012 126.161818 
L 310.758352 16.198182 
L 311.204044 16.198182 
L 311.267714 126.161818 
L 311.331384 16.198182 
L 311.458725 126.161818 
L 313.814524 126.161818 
L 313.941864 16.198182 
L 314.005534 16.198182 
L 314.132875 126.161818 
L 321.900644 126.161818 
L 321.964314 16.198182 
L 322.091655 126.161818 
L 322.473676 126.161818 
L 322.601017 16.198182 
L 323.237719 16.198182 
L 323.365059 126.161818 
L 324.256443 126.161818 
L 324.320113 16.198182 
L 324.447453 126.161818 
L 326.357561 126.161818 
L 326.421231 16.198182 
L 326.548571 126.161818 
L 328.331338 126.161818 
L 328.458678 16.198182 
L 328.90437 16.198182 
L 329.031711 126.161818 
L 329.159051 16.198182 
L 329.413732 16.198182 
L 329.541073 126.161818 
L 370.990398 126.161818 
L 370.990398 126.161818 
" style="fill:none;stroke:#ffa500;stroke-linecap:square;stroke-width:1.5;"/>
   </g>
   <g id="patch_3">
    <path d="M 30.103125 131.66 
L 30.103125 10.7 
" style="fill:none;stroke:#000000;stroke-linecap:square;stroke-linejoin:miter;stroke-width:0.8;"/>
   </g>
   <g id="patch_4">
    <path d="M 387.223125 131.66 
L 387.223125 10.7 
" style="fill:none;stroke:#000000;stroke-linecap:square;stroke-linejoin:miter;stroke-width:0.8;"/>
   </g>
   <g id="patch_5">
    <path d="M 30.103125 131.66 
L 387.223125 131.66 
" style="fill:none;stroke:#000000;stroke-linecap:square;stroke-linejoin:miter;stroke-width:0.8;"/>
   </g>
   <g id="patch_6">
    <path d="M 30.103125 10.7 
L 387.223125 10.7 
" style="fill:none;stroke:#000000;stroke-linecap:square;stroke-linejoin:miter;stroke-width:0.8;"/>
   </g>
   <g id="legend_1">
    <g id="patch_7">
     <path d="M 285.160625 80.158125 
L 380.223125 80.158125 
Q 382.223125 80.158125 382.223125 78.158125 
L 382.223125 64.201875 
Q 382.223125 62.201875 380.223125 62.201875 
L 285.160625 62.201875 
Q 283.160625 62.201875 283.160625 64.201875 
L 283.160625 78.158125 
Q 283.160625 80.158125 285.160625 80.158125 
z
" style="fill:#ffffff;opacity:0.8;stroke:#cccccc;stroke-linejoin:miter;"/>
    </g>
    <g id="line2d_14">
     <path d="M 287.160625 70.300312 
L 307.160625 70.300312 
" style="fill:none;stroke:#ffa500;stroke-linecap:square;stroke-width:1.5;"/>
    </g>
    <g id="line2d_15"/>
    <g id="text_13">
     <!-- y_pred_label -->
     <defs>
      <path d="M 32.171875 -5.078125 
Q 28.375 -14.84375 24.75 -17.8125 
Q 21.140625 -20.796875 15.09375 -20.796875 
L 7.90625 -20.796875 
L 7.90625 -13.28125 
L 13.1875 -13.28125 
Q 16.890625 -13.28125 18.9375 -11.515625 
Q 21 -9.765625 23.484375 -3.21875 
L 25.09375 0.875 
L 2.984375 54.6875 
L 12.5 54.6875 
L 29.59375 11.921875 
L 46.6875 54.6875 
L 56.203125 54.6875 
z
" id="DejaVuSans-121"/>
      <path d="M 50.984375 -16.609375 
L 50.984375 -23.578125 
L -0.984375 -23.578125 
L -0.984375 -16.609375 
z
" id="DejaVuSans-95"/>
      <path d="M 18.109375 8.203125 
L 18.109375 -20.796875 
L 9.078125 -20.796875 
L 9.078125 54.6875 
L 18.109375 54.6875 
L 18.109375 46.390625 
Q 20.953125 51.265625 25.265625 53.625 
Q 29.59375 56 35.59375 56 
Q 45.5625 56 51.78125 48.09375 
Q 58.015625 40.1875 58.015625 27.296875 
Q 58.015625 14.40625 51.78125 6.484375 
Q 45.5625 -1.421875 35.59375 -1.421875 
Q 29.59375 -1.421875 25.265625 0.953125 
Q 20.953125 3.328125 18.109375 8.203125 
z
M 48.6875 27.296875 
Q 48.6875 37.203125 44.609375 42.84375 
Q 40.53125 48.484375 33.40625 48.484375 
Q 26.265625 48.484375 22.1875 42.84375 
Q 18.109375 37.203125 18.109375 27.296875 
Q 18.109375 17.390625 22.1875 11.75 
Q 26.265625 6.109375 33.40625 6.109375 
Q 40.53125 6.109375 44.609375 11.75 
Q 48.6875 17.390625 48.6875 27.296875 
z
" id="DejaVuSans-112"/>
      <path d="M 41.109375 46.296875 
Q 39.59375 47.171875 37.8125 47.578125 
Q 36.03125 48 33.890625 48 
Q 26.265625 48 22.1875 43.046875 
Q 18.109375 38.09375 18.109375 28.8125 
L 18.109375 0 
L 9.078125 0 
L 9.078125 54.6875 
L 18.109375 54.6875 
L 18.109375 46.1875 
Q 20.953125 51.171875 25.484375 53.578125 
Q 30.03125 56 36.53125 56 
Q 37.453125 56 38.578125 55.875 
Q 39.703125 55.765625 41.0625 55.515625 
z
" id="DejaVuSans-114"/>
      <path d="M 56.203125 29.59375 
L 56.203125 25.203125 
L 14.890625 25.203125 
Q 15.484375 15.921875 20.484375 11.0625 
Q 25.484375 6.203125 34.421875 6.203125 
Q 39.59375 6.203125 44.453125 7.46875 
Q 49.3125 8.734375 54.109375 11.28125 
L 54.109375 2.78125 
Q 49.265625 0.734375 44.1875 -0.34375 
Q 39.109375 -1.421875 33.890625 -1.421875 
Q 20.796875 -1.421875 13.15625 6.1875 
Q 5.515625 13.8125 5.515625 26.8125 
Q 5.515625 40.234375 12.765625 48.109375 
Q 20.015625 56 32.328125 56 
Q 43.359375 56 49.78125 48.890625 
Q 56.203125 41.796875 56.203125 29.59375 
z
M 47.21875 32.234375 
Q 47.125 39.59375 43.09375 43.984375 
Q 39.0625 48.390625 32.421875 48.390625 
Q 24.90625 48.390625 20.390625 44.140625 
Q 15.875 39.890625 15.1875 32.171875 
z
" id="DejaVuSans-101"/>
      <path d="M 45.40625 46.390625 
L 45.40625 75.984375 
L 54.390625 75.984375 
L 54.390625 0 
L 45.40625 0 
L 45.40625 8.203125 
Q 42.578125 3.328125 38.25 0.953125 
Q 33.9375 -1.421875 27.875 -1.421875 
Q 17.96875 -1.421875 11.734375 6.484375 
Q 5.515625 14.40625 5.515625 27.296875 
Q 5.515625 40.1875 11.734375 48.09375 
Q 17.96875 56 27.875 56 
Q 33.9375 56 38.25 53.625 
Q 42.578125 51.265625 45.40625 46.390625 
z
M 14.796875 27.296875 
Q 14.796875 17.390625 18.875 11.75 
Q 22.953125 6.109375 30.078125 6.109375 
Q 37.203125 6.109375 41.296875 11.75 
Q 45.40625 17.390625 45.40625 27.296875 
Q 45.40625 37.203125 41.296875 42.84375 
Q 37.203125 48.484375 30.078125 48.484375 
Q 22.953125 48.484375 18.875 42.84375 
Q 14.796875 37.203125 14.796875 27.296875 
z
" id="DejaVuSans-100"/>
      <path d="M 9.421875 75.984375 
L 18.40625 75.984375 
L 18.40625 0 
L 9.421875 0 
z
" id="DejaVuSans-108"/>
      <path d="M 34.28125 27.484375 
Q 23.390625 27.484375 19.1875 25 
Q 14.984375 22.515625 14.984375 16.5 
Q 14.984375 11.71875 18.140625 8.90625 
Q 21.296875 6.109375 26.703125 6.109375 
Q 34.1875 6.109375 38.703125 11.40625 
Q 43.21875 16.703125 43.21875 25.484375 
L 43.21875 27.484375 
z
M 52.203125 31.203125 
L 52.203125 0 
L 43.21875 0 
L 43.21875 8.296875 
Q 40.140625 3.328125 35.546875 0.953125 
Q 30.953125 -1.421875 24.3125 -1.421875 
Q 15.921875 -1.421875 10.953125 3.296875 
Q 6 8.015625 6 15.921875 
Q 6 25.140625 12.171875 29.828125 
Q 18.359375 34.515625 30.609375 34.515625 
L 43.21875 34.515625 
L 43.21875 35.40625 
Q 43.21875 41.609375 39.140625 45 
Q 35.0625 48.390625 27.6875 48.390625 
Q 23 48.390625 18.546875 47.265625 
Q 14.109375 46.140625 10.015625 43.890625 
L 10.015625 52.203125 
Q 14.9375 54.109375 19.578125 55.046875 
Q 24.21875 56 28.609375 56 
Q 40.484375 56 46.34375 49.84375 
Q 52.203125 43.703125 52.203125 31.203125 
z
" id="DejaVuSans-97"/>
      <path d="M 48.6875 27.296875 
Q 48.6875 37.203125 44.609375 42.84375 
Q 40.53125 48.484375 33.40625 48.484375 
Q 26.265625 48.484375 22.1875 42.84375 
Q 18.109375 37.203125 18.109375 27.296875 
Q 18.109375 17.390625 22.1875 11.75 
Q 26.265625 6.109375 33.40625 6.109375 
Q 40.53125 6.109375 44.609375 11.75 
Q 48.6875 17.390625 48.6875 27.296875 
z
M 18.109375 46.390625 
Q 20.953125 51.265625 25.265625 53.625 
Q 29.59375 56 35.59375 56 
Q 45.5625 56 51.78125 48.09375 
Q 58.015625 40.1875 58.015625 27.296875 
Q 58.015625 14.40625 51.78125 6.484375 
Q 45.5625 -1.421875 35.59375 -1.421875 
Q 29.59375 -1.421875 25.265625 0.953125 
Q 20.953125 3.328125 18.109375 8.203125 
L 18.109375 0 
L 9.078125 0 
L 9.078125 75.984375 
L 18.109375 75.984375 
z
" id="DejaVuSans-98"/>
     </defs>
     <g transform="translate(315.160625 73.800312)scale(0.1 -0.1)">
      <use xlink:href="#DejaVuSans-121"/>
      <use x="59.179688" xlink:href="#DejaVuSans-95"/>
      <use x="109.179688" xlink:href="#DejaVuSans-112"/>
      <use x="172.65625" xlink:href="#DejaVuSans-114"/>
      <use x="213.738281" xlink:href="#DejaVuSans-101"/>
      <use x="275.261719" xlink:href="#DejaVuSans-100"/>
      <use x="338.738281" xlink:href="#DejaVuSans-95"/>
      <use x="388.738281" xlink:href="#DejaVuSans-108"/>
      <use x="416.521484" xlink:href="#DejaVuSans-97"/>
      <use x="477.800781" xlink:href="#DejaVuSans-98"/>
      <use x="541.277344" xlink:href="#DejaVuSans-101"/>
      <use x="602.800781" xlink:href="#DejaVuSans-108"/>
     </g>
    </g>
   </g>
  </g>
  <g id="axes_2">
   <g id="patch_8">
    <path d="M 30.103125 276.812 
L 387.223125 276.812 
L 387.223125 155.852 
L 30.103125 155.852 
z
" style="fill:#ffffff;"/>
   </g>
   <g id="PathCollection_1">
    <defs>
     <path d="M 0 1.414214 
C 0.375054 1.414214 0.734797 1.265203 1 1 
C 1.265203 0.734797 1.414214 0.375054 1.414214 0 
C 1.414214 -0.375054 1.265203 -0.734797 1 -1 
C 0.734797 -1.265203 0.375054 -1.414214 0 -1.414214 
C -0.375054 -1.414214 -0.734797 -1.265203 -1 -1 
C -1.265203 -0.734797 -1.414214 -0.375054 -1.414214 0 
C -1.414214 0.375054 -1.265203 0.734797 -1 1 
C -0.734797 1.265203 -0.375054 1.414214 0 1.414214 
z
" id="mc848b99f1d" style="stroke:#ff0000;"/>
    </defs>
    <g clip-path="url(#pe5234cd342)">
     <use style="fill:#ff0000;stroke:#ff0000;" x="85.87507" xlink:href="#mc848b99f1d" y="162.359074"/>
     <use style="fill:#ff0000;stroke:#ff0000;" x="130.444237" xlink:href="#mc848b99f1d" y="162.359074"/>
     <use style="fill:#ff0000;stroke:#ff0000;" x="133.245728" xlink:href="#mc848b99f1d" y="162.359074"/>
     <use style="fill:#ff0000;stroke:#ff0000;" x="228.432734" xlink:href="#mc848b99f1d" y="162.359074"/>
     <use style="fill:#ff0000;stroke:#ff0000;" x="230.215501" xlink:href="#mc848b99f1d" y="162.359074"/>
     <use style="fill:#ff0000;stroke:#ff0000;" x="234.608747" xlink:href="#mc848b99f1d" y="162.359074"/>
     <use style="fill:#ff0000;stroke:#ff0000;" x="304.327658" xlink:href="#mc848b99f1d" y="162.359074"/>
     <use style="fill:#ff0000;stroke:#ff0000;" x="310.822022" xlink:href="#mc848b99f1d" y="162.359074"/>
     <use style="fill:#ff0000;stroke:#ff0000;" x="329.477402" xlink:href="#mc848b99f1d" y="162.359074"/>
    </g>
   </g>
   <g id="matplotlib.axis_3">
    <g id="xtick_7">
     <g id="line2d_16">
      <g>
       <use style="stroke:#000000;stroke-width:0.8;" x="39.968828" xlink:href="#m80189d6a1f" y="276.812"/>
      </g>
     </g>
     <g id="text_14">
      <!-- 5000 -->
      <g transform="translate(27.243828 291.410437)scale(0.1 -0.1)">
       <use xlink:href="#DejaVuSans-53"/>
       <use x="63.623047" xlink:href="#DejaVuSans-48"/>
       <use x="127.246094" xlink:href="#DejaVuSans-48"/>
       <use x="190.869141" xlink:href="#DejaVuSans-48"/>
      </g>
     </g>
    </g>
    <g id="xtick_8">
     <g id="line2d_17">
      <g>
       <use style="stroke:#000000;stroke-width:0.8;" x="103.639067" xlink:href="#m80189d6a1f" y="276.812"/>
      </g>
     </g>
     <g id="text_15">
      <!-- 6000 -->
      <g transform="translate(90.914067 291.410437)scale(0.1 -0.1)">
       <use xlink:href="#DejaVuSans-54"/>
       <use x="63.623047" xlink:href="#DejaVuSans-48"/>
       <use x="127.246094" xlink:href="#DejaVuSans-48"/>
       <use x="190.869141" xlink:href="#DejaVuSans-48"/>
      </g>
     </g>
    </g>
    <g id="xtick_9">
     <g id="line2d_18">
      <g>
       <use style="stroke:#000000;stroke-width:0.8;" x="167.309305" xlink:href="#m80189d6a1f" y="276.812"/>
      </g>
     </g>
     <g id="text_16">
      <!-- 7000 -->
      <g transform="translate(154.584305 291.410437)scale(0.1 -0.1)">
       <use xlink:href="#DejaVuSans-55"/>
       <use x="63.623047" xlink:href="#DejaVuSans-48"/>
       <use x="127.246094" xlink:href="#DejaVuSans-48"/>
       <use x="190.869141" xlink:href="#DejaVuSans-48"/>
      </g>
     </g>
    </g>
    <g id="xtick_10">
     <g id="line2d_19">
      <g>
       <use style="stroke:#000000;stroke-width:0.8;" x="230.979544" xlink:href="#m80189d6a1f" y="276.812"/>
      </g>
     </g>
     <g id="text_17">
      <!-- 8000 -->
      <g transform="translate(218.254544 291.410437)scale(0.1 -0.1)">
       <use xlink:href="#DejaVuSans-56"/>
       <use x="63.623047" xlink:href="#DejaVuSans-48"/>
       <use x="127.246094" xlink:href="#DejaVuSans-48"/>
       <use x="190.869141" xlink:href="#DejaVuSans-48"/>
      </g>
     </g>
    </g>
    <g id="xtick_11">
     <g id="line2d_20">
      <g>
       <use style="stroke:#000000;stroke-width:0.8;" x="294.649782" xlink:href="#m80189d6a1f" y="276.812"/>
      </g>
     </g>
     <g id="text_18">
      <!-- 9000 -->
      <g transform="translate(281.924782 291.410437)scale(0.1 -0.1)">
       <use xlink:href="#DejaVuSans-57"/>
       <use x="63.623047" xlink:href="#DejaVuSans-48"/>
       <use x="127.246094" xlink:href="#DejaVuSans-48"/>
       <use x="190.869141" xlink:href="#DejaVuSans-48"/>
      </g>
     </g>
    </g>
    <g id="xtick_12">
     <g id="line2d_21">
      <g>
       <use style="stroke:#000000;stroke-width:0.8;" x="358.32002" xlink:href="#m80189d6a1f" y="276.812"/>
      </g>
     </g>
     <g id="text_19">
      <!-- 10000 -->
      <g transform="translate(342.41377 291.410437)scale(0.1 -0.1)">
       <use xlink:href="#DejaVuSans-49"/>
       <use x="63.623047" xlink:href="#DejaVuSans-48"/>
       <use x="127.246094" xlink:href="#DejaVuSans-48"/>
       <use x="190.869141" xlink:href="#DejaVuSans-48"/>
       <use x="254.492188" xlink:href="#DejaVuSans-48"/>
      </g>
     </g>
    </g>
   </g>
   <g id="matplotlib.axis_4">
    <g id="ytick_7">
     <g id="line2d_22">
      <g>
       <use style="stroke:#000000;stroke-width:0.8;" x="30.103125" xlink:href="#mfdf02192ac" y="271.313818"/>
      </g>
     </g>
     <g id="text_20">
      <!-- 0.0 -->
      <g transform="translate(7.2 275.113037)scale(0.1 -0.1)">
       <use xlink:href="#DejaVuSans-48"/>
       <use x="63.623047" xlink:href="#DejaVuSans-46"/>
       <use x="95.410156" xlink:href="#DejaVuSans-48"/>
      </g>
     </g>
    </g>
    <g id="ytick_8">
     <g id="line2d_23">
      <g>
       <use style="stroke:#000000;stroke-width:0.8;" x="30.103125" xlink:href="#mfdf02192ac" y="249.522869"/>
      </g>
     </g>
     <g id="text_21">
      <!-- 0.2 -->
      <g transform="translate(7.2 253.322088)scale(0.1 -0.1)">
       <use xlink:href="#DejaVuSans-48"/>
       <use x="63.623047" xlink:href="#DejaVuSans-46"/>
       <use x="95.410156" xlink:href="#DejaVuSans-50"/>
      </g>
     </g>
    </g>
    <g id="ytick_9">
     <g id="line2d_24">
      <g>
       <use style="stroke:#000000;stroke-width:0.8;" x="30.103125" xlink:href="#mfdf02192ac" y="227.73192"/>
      </g>
     </g>
     <g id="text_22">
      <!-- 0.4 -->
      <g transform="translate(7.2 231.531139)scale(0.1 -0.1)">
       <use xlink:href="#DejaVuSans-48"/>
       <use x="63.623047" xlink:href="#DejaVuSans-46"/>
       <use x="95.410156" xlink:href="#DejaVuSans-52"/>
      </g>
     </g>
    </g>
    <g id="ytick_10">
     <g id="line2d_25">
      <g>
       <use style="stroke:#000000;stroke-width:0.8;" x="30.103125" xlink:href="#mfdf02192ac" y="205.940971"/>
      </g>
     </g>
     <g id="text_23">
      <!-- 0.6 -->
      <g transform="translate(7.2 209.74019)scale(0.1 -0.1)">
       <use xlink:href="#DejaVuSans-48"/>
       <use x="63.623047" xlink:href="#DejaVuSans-46"/>
       <use x="95.410156" xlink:href="#DejaVuSans-54"/>
      </g>
     </g>
    </g>
    <g id="ytick_11">
     <g id="line2d_26">
      <g>
       <use style="stroke:#000000;stroke-width:0.8;" x="30.103125" xlink:href="#mfdf02192ac" y="184.150022"/>
      </g>
     </g>
     <g id="text_24">
      <!-- 0.8 -->
      <g transform="translate(7.2 187.949241)scale(0.1 -0.1)">
       <use xlink:href="#DejaVuSans-48"/>
       <use x="63.623047" xlink:href="#DejaVuSans-46"/>
       <use x="95.410156" xlink:href="#DejaVuSans-56"/>
      </g>
     </g>
    </g>
    <g id="ytick_12">
     <g id="line2d_27">
      <g>
       <use style="stroke:#000000;stroke-width:0.8;" x="30.103125" xlink:href="#mfdf02192ac" y="162.359074"/>
      </g>
     </g>
     <g id="text_25">
      <!-- 1.0 -->
      <g transform="translate(7.2 166.158292)scale(0.1 -0.1)">
       <use xlink:href="#DejaVuSans-49"/>
       <use x="63.623047" xlink:href="#DejaVuSans-46"/>
       <use x="95.410156" xlink:href="#DejaVuSans-48"/>
      </g>
     </g>
    </g>
   </g>
   <g id="line2d_28">
    <path clip-path="url(#pe5234cd342)" d="M 46.335852 271.313818 
L 84.474325 271.313818 
L 84.601666 162.359074 
L 148.144563 162.359074 
L 148.271904 271.313818 
L 211.814802 271.313818 
L 211.942142 162.359074 
L 307.320159 162.359074 
L 307.4475 271.313818 
L 370.990398 271.313818 
L 370.990398 271.313818 
" style="fill:none;stroke:#ffa500;stroke-linecap:square;stroke-width:1.5;"/>
   </g>
   <g id="patch_9">
    <path d="M 30.103125 276.812 
L 30.103125 155.852 
" style="fill:none;stroke:#000000;stroke-linecap:square;stroke-linejoin:miter;stroke-width:0.8;"/>
   </g>
   <g id="patch_10">
    <path d="M 387.223125 276.812 
L 387.223125 155.852 
" style="fill:none;stroke:#000000;stroke-linecap:square;stroke-linejoin:miter;stroke-width:0.8;"/>
   </g>
   <g id="patch_11">
    <path d="M 30.103125 276.812 
L 387.223125 276.812 
" style="fill:none;stroke:#000000;stroke-linecap:square;stroke-linejoin:miter;stroke-width:0.8;"/>
   </g>
   <g id="patch_12">
    <path d="M 30.103125 155.852 
L 387.223125 155.852 
" style="fill:none;stroke:#000000;stroke-linecap:square;stroke-linejoin:miter;stroke-width:0.8;"/>
   </g>
   <g id="legend_2">
    <g id="patch_13">
     <path d="M 288.915313 232.649187 
L 380.223125 232.649187 
Q 382.223125 232.649187 382.223125 230.649187 
L 382.223125 202.014812 
Q 382.223125 200.014812 380.223125 200.014812 
L 288.915313 200.014812 
Q 286.915313 200.014812 286.915313 202.014812 
L 286.915313 230.649187 
Q 286.915313 232.649187 288.915313 232.649187 
z
" style="fill:#ffffff;opacity:0.8;stroke:#cccccc;stroke-linejoin:miter;"/>
    </g>
    <g id="line2d_29">
     <path d="M 290.915313 208.11325 
L 310.915313 208.11325 
" style="fill:none;stroke:#ffa500;stroke-linecap:square;stroke-width:1.5;"/>
    </g>
    <g id="line2d_30"/>
    <g id="text_26">
     <!-- y_test_label -->
     <defs>
      <path d="M 18.3125 70.21875 
L 18.3125 54.6875 
L 36.8125 54.6875 
L 36.8125 47.703125 
L 18.3125 47.703125 
L 18.3125 18.015625 
Q 18.3125 11.328125 20.140625 9.421875 
Q 21.96875 7.515625 27.59375 7.515625 
L 36.8125 7.515625 
L 36.8125 0 
L 27.59375 0 
Q 17.1875 0 13.234375 3.875 
Q 9.28125 7.765625 9.28125 18.015625 
L 9.28125 47.703125 
L 2.6875 47.703125 
L 2.6875 54.6875 
L 9.28125 54.6875 
L 9.28125 70.21875 
z
" id="DejaVuSans-116"/>
      <path d="M 44.28125 53.078125 
L 44.28125 44.578125 
Q 40.484375 46.53125 36.375 47.5 
Q 32.28125 48.484375 27.875 48.484375 
Q 21.1875 48.484375 17.84375 46.4375 
Q 14.5 44.390625 14.5 40.28125 
Q 14.5 37.15625 16.890625 35.375 
Q 19.28125 33.59375 26.515625 31.984375 
L 29.59375 31.296875 
Q 39.15625 29.25 43.1875 25.515625 
Q 47.21875 21.78125 47.21875 15.09375 
Q 47.21875 7.46875 41.1875 3.015625 
Q 35.15625 -1.421875 24.609375 -1.421875 
Q 20.21875 -1.421875 15.453125 -0.5625 
Q 10.6875 0.296875 5.421875 2 
L 5.421875 11.28125 
Q 10.40625 8.6875 15.234375 7.390625 
Q 20.0625 6.109375 24.8125 6.109375 
Q 31.15625 6.109375 34.5625 8.28125 
Q 37.984375 10.453125 37.984375 14.40625 
Q 37.984375 18.0625 35.515625 20.015625 
Q 33.0625 21.96875 24.703125 23.78125 
L 21.578125 24.515625 
Q 13.234375 26.265625 9.515625 29.90625 
Q 5.8125 33.546875 5.8125 39.890625 
Q 5.8125 47.609375 11.28125 51.796875 
Q 16.75 56 26.8125 56 
Q 31.78125 56 36.171875 55.265625 
Q 40.578125 54.546875 44.28125 53.078125 
z
" id="DejaVuSans-115"/>
     </defs>
     <g transform="translate(318.915313 211.61325)scale(0.1 -0.1)">
      <use xlink:href="#DejaVuSans-121"/>
      <use x="59.179688" xlink:href="#DejaVuSans-95"/>
      <use x="109.179688" xlink:href="#DejaVuSans-116"/>
      <use x="148.388672" xlink:href="#DejaVuSans-101"/>
      <use x="209.912109" xlink:href="#DejaVuSans-115"/>
      <use x="262.011719" xlink:href="#DejaVuSans-116"/>
      <use x="301.220703" xlink:href="#DejaVuSans-95"/>
      <use x="351.220703" xlink:href="#DejaVuSans-108"/>
      <use x="379.003906" xlink:href="#DejaVuSans-97"/>
      <use x="440.283203" xlink:href="#DejaVuSans-98"/>
      <use x="503.759766" xlink:href="#DejaVuSans-101"/>
      <use x="565.283203" xlink:href="#DejaVuSans-108"/>
     </g>
    </g>
    <g id="PathCollection_2">
     <g>
      <use style="fill:#ff0000;stroke:#ff0000;" x="300.915313" xlink:href="#mc848b99f1d" y="223.9445"/>
     </g>
    </g>
    <g id="text_27">
     <!-- warning -->
     <defs>
      <path d="M 4.203125 54.6875 
L 13.1875 54.6875 
L 24.421875 12.015625 
L 35.59375 54.6875 
L 46.1875 54.6875 
L 57.421875 12.015625 
L 68.609375 54.6875 
L 77.59375 54.6875 
L 63.28125 0 
L 52.6875 0 
L 40.921875 44.828125 
L 29.109375 0 
L 18.5 0 
z
" id="DejaVuSans-119"/>
      <path d="M 54.890625 33.015625 
L 54.890625 0 
L 45.90625 0 
L 45.90625 32.71875 
Q 45.90625 40.484375 42.875 44.328125 
Q 39.84375 48.1875 33.796875 48.1875 
Q 26.515625 48.1875 22.3125 43.546875 
Q 18.109375 38.921875 18.109375 30.90625 
L 18.109375 0 
L 9.078125 0 
L 9.078125 54.6875 
L 18.109375 54.6875 
L 18.109375 46.1875 
Q 21.34375 51.125 25.703125 53.5625 
Q 30.078125 56 35.796875 56 
Q 45.21875 56 50.046875 50.171875 
Q 54.890625 44.34375 54.890625 33.015625 
z
" id="DejaVuSans-110"/>
      <path d="M 9.421875 54.6875 
L 18.40625 54.6875 
L 18.40625 0 
L 9.421875 0 
z
M 9.421875 75.984375 
L 18.40625 75.984375 
L 18.40625 64.59375 
L 9.421875 64.59375 
z
" id="DejaVuSans-105"/>
      <path d="M 45.40625 27.984375 
Q 45.40625 37.75 41.375 43.109375 
Q 37.359375 48.484375 30.078125 48.484375 
Q 22.859375 48.484375 18.828125 43.109375 
Q 14.796875 37.75 14.796875 27.984375 
Q 14.796875 18.265625 18.828125 12.890625 
Q 22.859375 7.515625 30.078125 7.515625 
Q 37.359375 7.515625 41.375 12.890625 
Q 45.40625 18.265625 45.40625 27.984375 
z
M 54.390625 6.78125 
Q 54.390625 -7.171875 48.1875 -13.984375 
Q 42 -20.796875 29.203125 -20.796875 
Q 24.46875 -20.796875 20.265625 -20.09375 
Q 16.0625 -19.390625 12.109375 -17.921875 
L 12.109375 -9.1875 
Q 16.0625 -11.328125 19.921875 -12.34375 
Q 23.78125 -13.375 27.78125 -13.375 
Q 36.625 -13.375 41.015625 -8.765625 
Q 45.40625 -4.15625 45.40625 5.171875 
L 45.40625 9.625 
Q 42.625 4.78125 38.28125 2.390625 
Q 33.9375 0 27.875 0 
Q 17.828125 0 11.671875 7.65625 
Q 5.515625 15.328125 5.515625 27.984375 
Q 5.515625 40.671875 11.671875 48.328125 
Q 17.828125 56 27.875 56 
Q 33.9375 56 38.28125 53.609375 
Q 42.625 51.21875 45.40625 46.390625 
L 45.40625 54.6875 
L 54.390625 54.6875 
z
" id="DejaVuSans-103"/>
     </defs>
     <g transform="translate(318.915313 226.5695)scale(0.1 -0.1)">
      <use xlink:href="#DejaVuSans-119"/>
      <use x="81.787109" xlink:href="#DejaVuSans-97"/>
      <use x="143.066406" xlink:href="#DejaVuSans-114"/>
      <use x="184.164062" xlink:href="#DejaVuSans-110"/>
      <use x="247.542969" xlink:href="#DejaVuSans-105"/>
      <use x="275.326172" xlink:href="#DejaVuSans-110"/>
      <use x="338.705078" xlink:href="#DejaVuSans-103"/>
     </g>
    </g>
   </g>
  </g>
 </g>
 <defs>
  <clipPath id="pa4963e955d">
   <rect height="120.96" width="357.12" x="30.103125" y="10.7"/>
  </clipPath>
  <clipPath id="pe5234cd342">
   <rect height="120.96" width="357.12" x="30.103125" y="155.852"/>
  </clipPath>
 </defs>
</svg>
