<?xml version="1.0" encoding="utf-8" standalone="no"?>
<!DOCTYPE svg PUBLIC "-//W3C//DTD SVG 1.1//EN"
  "http://www.w3.org/Graphics/SVG/1.1/DTD/svg11.dtd">
<!-- Created with matplotlib (https://matplotlib.org/) -->
<svg height="300.690125pt" version="1.1" viewBox="0 0 397.923125 300.690125" width="397.923125pt" xmlns="http://www.w3.org/2000/svg" xmlns:xlink="http://www.w3.org/1999/xlink">
 <defs>
  <style type="text/css">
*{stroke-linecap:butt;stroke-linejoin:round;}
  </style>
 </defs>
 <g id="figure_1">
  <g id="patch_1">
   <path d="M 0 300.690125 
L 397.923125 300.690125 
L 397.923125 0 
L 0 0 
z
" style="fill:#ffffff;"/>
  </g>
  <g id="axes_1">
   <g id="patch_2">
    <path d="M 30.103125 131.66 
L 387.223125 131.66 
L 387.223125 10.7 
L 30.103125 10.7 
z
" style="fill:#ffffff;"/>
   </g>
   <g id="matplotlib.axis_1">
    <g id="xtick_1">
     <g id="line2d_1">
      <defs>
       <path d="M 0 0 
L 0 3.5 
" id="m01c0008cf7" style="stroke:#000000;stroke-width:0.8;"/>
      </defs>
      <g>
       <use style="stroke:#000000;stroke-width:0.8;" x="43.425602" xlink:href="#m01c0008cf7" y="131.66"/>
      </g>
     </g>
     <g id="text_1">
      <!-- 8000 -->
      <defs>
       <path d="M 31.78125 34.625 
Q 24.75 34.625 20.71875 30.859375 
Q 16.703125 27.09375 16.703125 20.515625 
Q 16.703125 13.921875 20.71875 10.15625 
Q 24.75 6.390625 31.78125 6.390625 
Q 38.8125 6.390625 42.859375 10.171875 
Q 46.921875 13.96875 46.921875 20.515625 
Q 46.921875 27.09375 42.890625 30.859375 
Q 38.875 34.625 31.78125 34.625 
z
M 21.921875 38.8125 
Q 15.578125 40.375 12.03125 44.71875 
Q 8.5 49.078125 8.5 55.328125 
Q 8.5 64.0625 14.71875 69.140625 
Q 20.953125 74.21875 31.78125 74.21875 
Q 42.671875 74.21875 48.875 69.140625 
Q 55.078125 64.0625 55.078125 55.328125 
Q 55.078125 49.078125 51.53125 44.71875 
Q 48 40.375 41.703125 38.8125 
Q 48.828125 37.15625 52.796875 32.3125 
Q 56.78125 27.484375 56.78125 20.515625 
Q 56.78125 9.90625 50.3125 4.234375 
Q 43.84375 -1.421875 31.78125 -1.421875 
Q 19.734375 -1.421875 13.25 4.234375 
Q 6.78125 9.90625 6.78125 20.515625 
Q 6.78125 27.484375 10.78125 32.3125 
Q 14.796875 37.15625 21.921875 38.8125 
z
M 18.3125 54.390625 
Q 18.3125 48.734375 21.84375 45.5625 
Q 25.390625 42.390625 31.78125 42.390625 
Q 38.140625 42.390625 41.71875 45.5625 
Q 45.3125 48.734375 45.3125 54.390625 
Q 45.3125 60.0625 41.71875 63.234375 
Q 38.140625 66.40625 31.78125 66.40625 
Q 25.390625 66.40625 21.84375 63.234375 
Q 18.3125 60.0625 18.3125 54.390625 
z
" id="DejaVuSans-56"/>
       <path d="M 31.78125 66.40625 
Q 24.171875 66.40625 20.328125 58.90625 
Q 16.5 51.421875 16.5 36.375 
Q 16.5 21.390625 20.328125 13.890625 
Q 24.171875 6.390625 31.78125 6.390625 
Q 39.453125 6.390625 43.28125 13.890625 
Q 47.125 21.390625 47.125 36.375 
Q 47.125 51.421875 43.28125 58.90625 
Q 39.453125 66.40625 31.78125 66.40625 
z
M 31.78125 74.21875 
Q 44.046875 74.21875 50.515625 64.515625 
Q 56.984375 54.828125 56.984375 36.375 
Q 56.984375 17.96875 50.515625 8.265625 
Q 44.046875 -1.421875 31.78125 -1.421875 
Q 19.53125 -1.421875 13.0625 8.265625 
Q 6.59375 17.96875 6.59375 36.375 
Q 6.59375 54.828125 13.0625 64.515625 
Q 19.53125 74.21875 31.78125 74.21875 
z
" id="DejaVuSans-48"/>
      </defs>
      <g transform="translate(30.700602 146.258437)scale(0.1 -0.1)">
       <use xlink:href="#DejaVuSans-56"/>
       <use x="63.623047" xlink:href="#DejaVuSans-48"/>
       <use x="127.246094" xlink:href="#DejaVuSans-48"/>
       <use x="190.869141" xlink:href="#DejaVuSans-48"/>
      </g>
     </g>
    </g>
    <g id="xtick_2">
     <g id="line2d_2">
      <g>
       <use style="stroke:#000000;stroke-width:0.8;" x="83.84574" xlink:href="#m01c0008cf7" y="131.66"/>
      </g>
     </g>
     <g id="text_2">
      <!-- 8500 -->
      <defs>
       <path d="M 10.796875 72.90625 
L 49.515625 72.90625 
L 49.515625 64.59375 
L 19.828125 64.59375 
L 19.828125 46.734375 
Q 21.96875 47.46875 24.109375 47.828125 
Q 26.265625 48.1875 28.421875 48.1875 
Q 40.625 48.1875 47.75 41.5 
Q 54.890625 34.8125 54.890625 23.390625 
Q 54.890625 11.625 47.5625 5.09375 
Q 40.234375 -1.421875 26.90625 -1.421875 
Q 22.3125 -1.421875 17.546875 -0.640625 
Q 12.796875 0.140625 7.71875 1.703125 
L 7.71875 11.625 
Q 12.109375 9.234375 16.796875 8.0625 
Q 21.484375 6.890625 26.703125 6.890625 
Q 35.15625 6.890625 40.078125 11.328125 
Q 45.015625 15.765625 45.015625 23.390625 
Q 45.015625 31 40.078125 35.4375 
Q 35.15625 39.890625 26.703125 39.890625 
Q 22.75 39.890625 18.8125 39.015625 
Q 14.890625 38.140625 10.796875 36.28125 
z
" id="DejaVuSans-53"/>
      </defs>
      <g transform="translate(71.12074 146.258437)scale(0.1 -0.1)">
       <use xlink:href="#DejaVuSans-56"/>
       <use x="63.623047" xlink:href="#DejaVuSans-53"/>
       <use x="127.246094" xlink:href="#DejaVuSans-48"/>
       <use x="190.869141" xlink:href="#DejaVuSans-48"/>
      </g>
     </g>
    </g>
    <g id="xtick_3">
     <g id="line2d_3">
      <g>
       <use style="stroke:#000000;stroke-width:0.8;" x="124.265878" xlink:href="#m01c0008cf7" y="131.66"/>
      </g>
     </g>
     <g id="text_3">
      <!-- 9000 -->
      <defs>
       <path d="M 10.984375 1.515625 
L 10.984375 10.5 
Q 14.703125 8.734375 18.5 7.8125 
Q 22.3125 6.890625 25.984375 6.890625 
Q 35.75 6.890625 40.890625 13.453125 
Q 46.046875 20.015625 46.78125 33.40625 
Q 43.953125 29.203125 39.59375 26.953125 
Q 35.25 24.703125 29.984375 24.703125 
Q 19.046875 24.703125 12.671875 31.3125 
Q 6.296875 37.9375 6.296875 49.421875 
Q 6.296875 60.640625 12.9375 67.421875 
Q 19.578125 74.21875 30.609375 74.21875 
Q 43.265625 74.21875 49.921875 64.515625 
Q 56.59375 54.828125 56.59375 36.375 
Q 56.59375 19.140625 48.40625 8.859375 
Q 40.234375 -1.421875 26.421875 -1.421875 
Q 22.703125 -1.421875 18.890625 -0.6875 
Q 15.09375 0.046875 10.984375 1.515625 
z
M 30.609375 32.421875 
Q 37.25 32.421875 41.125 36.953125 
Q 45.015625 41.5 45.015625 49.421875 
Q 45.015625 57.28125 41.125 61.84375 
Q 37.25 66.40625 30.609375 66.40625 
Q 23.96875 66.40625 20.09375 61.84375 
Q 16.21875 57.28125 16.21875 49.421875 
Q 16.21875 41.5 20.09375 36.953125 
Q 23.96875 32.421875 30.609375 32.421875 
z
" id="DejaVuSans-57"/>
      </defs>
      <g transform="translate(111.540878 146.258437)scale(0.1 -0.1)">
       <use xlink:href="#DejaVuSans-57"/>
       <use x="63.623047" xlink:href="#DejaVuSans-48"/>
       <use x="127.246094" xlink:href="#DejaVuSans-48"/>
       <use x="190.869141" xlink:href="#DejaVuSans-48"/>
      </g>
     </g>
    </g>
    <g id="xtick_4">
     <g id="line2d_4">
      <g>
       <use style="stroke:#000000;stroke-width:0.8;" x="164.686015" xlink:href="#m01c0008cf7" y="131.66"/>
      </g>
     </g>
     <g id="text_4">
      <!-- 9500 -->
      <g transform="translate(151.961015 146.258437)scale(0.1 -0.1)">
       <use xlink:href="#DejaVuSans-57"/>
       <use x="63.623047" xlink:href="#DejaVuSans-53"/>
       <use x="127.246094" xlink:href="#DejaVuSans-48"/>
       <use x="190.869141" xlink:href="#DejaVuSans-48"/>
      </g>
     </g>
    </g>
    <g id="xtick_5">
     <g id="line2d_5">
      <g>
       <use style="stroke:#000000;stroke-width:0.8;" x="205.106153" xlink:href="#m01c0008cf7" y="131.66"/>
      </g>
     </g>
     <g id="text_5">
      <!-- 10000 -->
      <defs>
       <path d="M 12.40625 8.296875 
L 28.515625 8.296875 
L 28.515625 63.921875 
L 10.984375 60.40625 
L 10.984375 69.390625 
L 28.421875 72.90625 
L 38.28125 72.90625 
L 38.28125 8.296875 
L 54.390625 8.296875 
L 54.390625 0 
L 12.40625 0 
z
" id="DejaVuSans-49"/>
      </defs>
      <g transform="translate(189.199903 146.258437)scale(0.1 -0.1)">
       <use xlink:href="#DejaVuSans-49"/>
       <use x="63.623047" xlink:href="#DejaVuSans-48"/>
       <use x="127.246094" xlink:href="#DejaVuSans-48"/>
       <use x="190.869141" xlink:href="#DejaVuSans-48"/>
       <use x="254.492188" xlink:href="#DejaVuSans-48"/>
      </g>
     </g>
    </g>
    <g id="xtick_6">
     <g id="line2d_6">
      <g>
       <use style="stroke:#000000;stroke-width:0.8;" x="245.526291" xlink:href="#m01c0008cf7" y="131.66"/>
      </g>
     </g>
     <g id="text_6">
      <!-- 10500 -->
      <g transform="translate(229.620041 146.258437)scale(0.1 -0.1)">
       <use xlink:href="#DejaVuSans-49"/>
       <use x="63.623047" xlink:href="#DejaVuSans-48"/>
       <use x="127.246094" xlink:href="#DejaVuSans-53"/>
       <use x="190.869141" xlink:href="#DejaVuSans-48"/>
       <use x="254.492188" xlink:href="#DejaVuSans-48"/>
      </g>
     </g>
    </g>
    <g id="xtick_7">
     <g id="line2d_7">
      <g>
       <use style="stroke:#000000;stroke-width:0.8;" x="285.946428" xlink:href="#m01c0008cf7" y="131.66"/>
      </g>
     </g>
     <g id="text_7">
      <!-- 11000 -->
      <g transform="translate(270.040178 146.258437)scale(0.1 -0.1)">
       <use xlink:href="#DejaVuSans-49"/>
       <use x="63.623047" xlink:href="#DejaVuSans-49"/>
       <use x="127.246094" xlink:href="#DejaVuSans-48"/>
       <use x="190.869141" xlink:href="#DejaVuSans-48"/>
       <use x="254.492188" xlink:href="#DejaVuSans-48"/>
      </g>
     </g>
    </g>
    <g id="xtick_8">
     <g id="line2d_8">
      <g>
       <use style="stroke:#000000;stroke-width:0.8;" x="326.366566" xlink:href="#m01c0008cf7" y="131.66"/>
      </g>
     </g>
     <g id="text_8">
      <!-- 11500 -->
      <g transform="translate(310.460316 146.258437)scale(0.1 -0.1)">
       <use xlink:href="#DejaVuSans-49"/>
       <use x="63.623047" xlink:href="#DejaVuSans-49"/>
       <use x="127.246094" xlink:href="#DejaVuSans-53"/>
       <use x="190.869141" xlink:href="#DejaVuSans-48"/>
       <use x="254.492188" xlink:href="#DejaVuSans-48"/>
      </g>
     </g>
    </g>
    <g id="xtick_9">
     <g id="line2d_9">
      <g>
       <use style="stroke:#000000;stroke-width:0.8;" x="366.786703" xlink:href="#m01c0008cf7" y="131.66"/>
      </g>
     </g>
     <g id="text_9">
      <!-- 12000 -->
      <defs>
       <path d="M 19.1875 8.296875 
L 53.609375 8.296875 
L 53.609375 0 
L 7.328125 0 
L 7.328125 8.296875 
Q 12.9375 14.109375 22.625 23.890625 
Q 32.328125 33.6875 34.8125 36.53125 
Q 39.546875 41.84375 41.421875 45.53125 
Q 43.3125 49.21875 43.3125 52.78125 
Q 43.3125 58.59375 39.234375 62.25 
Q 35.15625 65.921875 28.609375 65.921875 
Q 23.96875 65.921875 18.8125 64.3125 
Q 13.671875 62.703125 7.8125 59.421875 
L 7.8125 69.390625 
Q 13.765625 71.78125 18.9375 73 
Q 24.125 74.21875 28.421875 74.21875 
Q 39.75 74.21875 46.484375 68.546875 
Q 53.21875 62.890625 53.21875 53.421875 
Q 53.21875 48.921875 51.53125 44.890625 
Q 49.859375 40.875 45.40625 35.40625 
Q 44.1875 33.984375 37.640625 27.21875 
Q 31.109375 20.453125 19.1875 8.296875 
z
" id="DejaVuSans-50"/>
      </defs>
      <g transform="translate(350.880453 146.258437)scale(0.1 -0.1)">
       <use xlink:href="#DejaVuSans-49"/>
       <use x="63.623047" xlink:href="#DejaVuSans-50"/>
       <use x="127.246094" xlink:href="#DejaVuSans-48"/>
       <use x="190.869141" xlink:href="#DejaVuSans-48"/>
       <use x="254.492188" xlink:href="#DejaVuSans-48"/>
      </g>
     </g>
    </g>
   </g>
   <g id="matplotlib.axis_2">
    <g id="ytick_1">
     <g id="line2d_10">
      <defs>
       <path d="M 0 0 
L -3.5 0 
" id="m620199c3d4" style="stroke:#000000;stroke-width:0.8;"/>
      </defs>
      <g>
       <use style="stroke:#000000;stroke-width:0.8;" x="30.103125" xlink:href="#m620199c3d4" y="126.161818"/>
      </g>
     </g>
     <g id="text_10">
      <!-- 0.0 -->
      <defs>
       <path d="M 10.6875 12.40625 
L 21 12.40625 
L 21 0 
L 10.6875 0 
z
" id="DejaVuSans-46"/>
      </defs>
      <g transform="translate(7.2 129.961037)scale(0.1 -0.1)">
       <use xlink:href="#DejaVuSans-48"/>
       <use x="63.623047" xlink:href="#DejaVuSans-46"/>
       <use x="95.410156" xlink:href="#DejaVuSans-48"/>
      </g>
     </g>
    </g>
    <g id="ytick_2">
     <g id="line2d_11">
      <g>
       <use style="stroke:#000000;stroke-width:0.8;" x="30.103125" xlink:href="#m620199c3d4" y="104.169091"/>
      </g>
     </g>
     <g id="text_11">
      <!-- 0.2 -->
      <g transform="translate(7.2 107.96831)scale(0.1 -0.1)">
       <use xlink:href="#DejaVuSans-48"/>
       <use x="63.623047" xlink:href="#DejaVuSans-46"/>
       <use x="95.410156" xlink:href="#DejaVuSans-50"/>
      </g>
     </g>
    </g>
    <g id="ytick_3">
     <g id="line2d_12">
      <g>
       <use style="stroke:#000000;stroke-width:0.8;" x="30.103125" xlink:href="#m620199c3d4" y="82.176364"/>
      </g>
     </g>
     <g id="text_12">
      <!-- 0.4 -->
      <defs>
       <path d="M 37.796875 64.3125 
L 12.890625 25.390625 
L 37.796875 25.390625 
z
M 35.203125 72.90625 
L 47.609375 72.90625 
L 47.609375 25.390625 
L 58.015625 25.390625 
L 58.015625 17.1875 
L 47.609375 17.1875 
L 47.609375 0 
L 37.796875 0 
L 37.796875 17.1875 
L 4.890625 17.1875 
L 4.890625 26.703125 
z
" id="DejaVuSans-52"/>
      </defs>
      <g transform="translate(7.2 85.975582)scale(0.1 -0.1)">
       <use xlink:href="#DejaVuSans-48"/>
       <use x="63.623047" xlink:href="#DejaVuSans-46"/>
       <use x="95.410156" xlink:href="#DejaVuSans-52"/>
      </g>
     </g>
    </g>
    <g id="ytick_4">
     <g id="line2d_13">
      <g>
       <use style="stroke:#000000;stroke-width:0.8;" x="30.103125" xlink:href="#m620199c3d4" y="60.183636"/>
      </g>
     </g>
     <g id="text_13">
      <!-- 0.6 -->
      <defs>
       <path d="M 33.015625 40.375 
Q 26.375 40.375 22.484375 35.828125 
Q 18.609375 31.296875 18.609375 23.390625 
Q 18.609375 15.53125 22.484375 10.953125 
Q 26.375 6.390625 33.015625 6.390625 
Q 39.65625 6.390625 43.53125 10.953125 
Q 47.40625 15.53125 47.40625 23.390625 
Q 47.40625 31.296875 43.53125 35.828125 
Q 39.65625 40.375 33.015625 40.375 
z
M 52.59375 71.296875 
L 52.59375 62.3125 
Q 48.875 64.0625 45.09375 64.984375 
Q 41.3125 65.921875 37.59375 65.921875 
Q 27.828125 65.921875 22.671875 59.328125 
Q 17.53125 52.734375 16.796875 39.40625 
Q 19.671875 43.65625 24.015625 45.921875 
Q 28.375 48.1875 33.59375 48.1875 
Q 44.578125 48.1875 50.953125 41.515625 
Q 57.328125 34.859375 57.328125 23.390625 
Q 57.328125 12.15625 50.6875 5.359375 
Q 44.046875 -1.421875 33.015625 -1.421875 
Q 20.359375 -1.421875 13.671875 8.265625 
Q 6.984375 17.96875 6.984375 36.375 
Q 6.984375 53.65625 15.1875 63.9375 
Q 23.390625 74.21875 37.203125 74.21875 
Q 40.921875 74.21875 44.703125 73.484375 
Q 48.484375 72.75 52.59375 71.296875 
z
" id="DejaVuSans-54"/>
      </defs>
      <g transform="translate(7.2 63.982855)scale(0.1 -0.1)">
       <use xlink:href="#DejaVuSans-48"/>
       <use x="63.623047" xlink:href="#DejaVuSans-46"/>
       <use x="95.410156" xlink:href="#DejaVuSans-54"/>
      </g>
     </g>
    </g>
    <g id="ytick_5">
     <g id="line2d_14">
      <g>
       <use style="stroke:#000000;stroke-width:0.8;" x="30.103125" xlink:href="#m620199c3d4" y="38.190909"/>
      </g>
     </g>
     <g id="text_14">
      <!-- 0.8 -->
      <g transform="translate(7.2 41.990128)scale(0.1 -0.1)">
       <use xlink:href="#DejaVuSans-48"/>
       <use x="63.623047" xlink:href="#DejaVuSans-46"/>
       <use x="95.410156" xlink:href="#DejaVuSans-56"/>
      </g>
     </g>
    </g>
    <g id="ytick_6">
     <g id="line2d_15">
      <g>
       <use style="stroke:#000000;stroke-width:0.8;" x="30.103125" xlink:href="#m620199c3d4" y="16.198182"/>
      </g>
     </g>
     <g id="text_15">
      <!-- 1.0 -->
      <g transform="translate(7.2 19.997401)scale(0.1 -0.1)">
       <use xlink:href="#DejaVuSans-49"/>
       <use x="63.623047" xlink:href="#DejaVuSans-46"/>
       <use x="95.410156" xlink:href="#DejaVuSans-48"/>
      </g>
     </g>
    </g>
   </g>
   <g id="line2d_16">
    <path clip-path="url(#p4c4e13b1a1)" d="M 46.335852 126.161818 
L 53.045595 126.161818 
L 53.207276 16.198182 
L 53.368956 126.161818 
L 57.249289 126.161818 
L 57.41097 16.198182 
L 57.572651 126.161818 
L 62.018866 126.161818 
L 62.180546 16.198182 
L 62.746428 16.198182 
L 62.908109 126.161818 
L 63.069789 16.198182 
L 63.797352 16.198182 
L 63.959032 126.161818 
L 65.575838 126.161818 
L 65.737518 16.198182 
L 66.3034 16.198182 
L 66.465081 126.161818 
L 66.626761 16.198182 
L 67.192643 16.198182 
L 67.354324 126.161818 
L 67.839365 126.161818 
L 68.001046 16.198182 
L 68.162727 126.161818 
L 71.153817 126.161818 
L 71.315497 16.198182 
L 71.638858 16.198182 
L 71.800539 126.161818 
L 71.881379 126.161818 
L 72.04306 16.198182 
L 72.285581 16.198182 
L 72.366421 126.161818 
L 72.528101 16.198182 
L 72.851463 16.198182 
L 73.013143 126.161818 
L 73.093983 16.198182 
L 73.174824 126.161818 
L 73.336504 16.198182 
L 76.731796 16.198182 
L 76.893476 126.161818 
L 77.297678 126.161818 
L 77.459358 16.198182 
L 77.621039 126.161818 
L 94.516656 126.161818 
L 94.678337 16.198182 
L 98.39699 16.198182 
L 98.55867 126.161818 
L 98.720351 126.161818 
L 98.882031 16.198182 
L 99.043712 126.161818 
L 101.46892 126.161818 
L 101.630601 16.198182 
L 103.247406 16.198182 
L 103.409087 126.161818 
L 104.46001 126.161818 
L 104.54085 16.198182 
L 104.621691 126.161818 
L 104.702531 16.198182 
L 104.864212 126.161818 
L 105.268413 126.161818 
L 105.430093 16.198182 
L 105.591774 16.198182 
L 105.753455 126.161818 
L 105.834295 126.161818 
L 105.995975 16.198182 
L 106.157656 126.161818 
L 106.966059 126.161818 
L 107.127739 16.198182 
L 111.331434 16.198182 
L 111.493114 126.161818 
L 119.334621 126.161818 
L 119.415461 16.198182 
L 119.577142 126.161818 
L 123.376635 126.161818 
L 123.538315 16.198182 
L 124.023357 16.198182 
L 124.104197 126.161818 
L 124.265878 16.198182 
L 124.427558 16.198182 
L 124.589239 126.161818 
L 124.670079 126.161818 
L 124.83176 16.198182 
L 124.99344 16.198182 
L 125.155121 126.161818 
L 125.640162 126.161818 
L 125.801843 16.198182 
L 125.963523 16.198182 
L 126.125204 126.161818 
L 127.337808 126.161818 
L 127.499489 16.198182 
L 127.742009 16.198182 
L 127.90369 126.161818 
L 127.98453 126.161818 
L 128.146211 16.198182 
L 128.307891 16.198182 
L 128.469572 126.161818 
L 129.601336 126.161818 
L 129.763016 16.198182 
L 130.652259 16.198182 
L 130.81394 126.161818 
L 131.056461 126.161818 
L 131.218141 16.198182 
L 131.379822 126.161818 
L 131.703183 126.161818 
L 131.864864 16.198182 
L 133.966711 16.198182 
L 134.128391 126.161818 
L 135.664356 126.161818 
L 135.826037 16.198182 
L 137.119481 16.198182 
L 137.200322 126.161818 
L 137.362002 16.198182 
L 137.604523 16.198182 
L 137.685363 126.161818 
L 137.847044 16.198182 
L 140.595613 16.198182 
L 140.676454 126.161818 
L 140.838134 16.198182 
L 141.323176 16.198182 
L 141.484856 126.161818 
L 146.658634 126.161818 
L 146.739474 16.198182 
L 146.901155 126.161818 
L 146.981995 16.198182 
L 147.143676 126.161818 
L 147.305356 16.198182 
L 147.467037 126.161818 
L 152.883335 126.161818 
L 153.045016 16.198182 
L 154.33846 16.198182 
L 154.500141 126.161818 
L 155.389384 126.161818 
L 155.551064 16.198182 
L 155.712745 16.198182 
L 155.874425 126.161818 
L 156.197786 126.161818 
L 156.278627 16.198182 
L 156.440307 126.161818 
L 156.601988 16.198182 
L 157.006189 16.198182 
L 157.087029 126.161818 
L 157.24871 16.198182 
L 157.32955 16.198182 
L 157.491231 126.161818 
L 159.431397 126.161818 
L 159.593078 16.198182 
L 164.200974 16.198182 
L 164.281814 126.161818 
L 164.443494 16.198182 
L 164.686015 16.198182 
L 164.766856 126.161818 
L 164.928536 16.198182 
L 165.009376 16.198182 
L 165.171057 126.161818 
L 165.332737 16.198182 
L 165.413578 126.161818 
L 165.575258 16.198182 
L 166.464501 16.198182 
L 166.545342 126.161818 
L 166.707022 16.198182 
L 172.285001 16.198182 
L 172.446682 126.161818 
L 173.497605 126.161818 
L 173.659286 16.198182 
L 173.901807 16.198182 
L 174.063487 126.161818 
L 174.225168 16.198182 
L 174.306008 16.198182 
L 174.467689 126.161818 
L 174.629369 16.198182 
L 174.87189 16.198182 
L 174.95273 126.161818 
L 175.114411 16.198182 
L 175.195251 126.161818 
L 175.356932 16.198182 
L 175.518612 126.161818 
L 175.680293 16.198182 
L 175.841973 126.161818 
L 175.922814 126.161818 
L 176.084494 16.198182 
L 178.267182 16.198182 
L 178.428862 126.161818 
L 178.590543 16.198182 
L 180.126508 16.198182 
L 180.288188 126.161818 
L 180.449869 16.198182 
L 180.530709 16.198182 
L 180.611549 126.161818 
L 180.77323 16.198182 
L 180.85407 16.198182 
L 180.934911 126.161818 
L 181.096591 16.198182 
L 181.258272 126.161818 
L 181.662473 126.161818 
L 181.824154 16.198182 
L 183.76432 16.198182 
L 183.926001 126.161818 
L 184.815244 126.161818 
L 184.896084 16.198182 
L 185.057765 126.161818 
L 185.219445 126.161818 
L 185.381126 16.198182 
L 186.189528 16.198182 
L 186.351209 126.161818 
L 186.997931 126.161818 
L 187.159612 16.198182 
L 187.321292 126.161818 
L 187.968015 126.161818 
L 188.129695 16.198182 
L 188.291376 16.198182 
L 188.372216 126.161818 
L 188.533896 16.198182 
L 188.695577 126.161818 
L 188.857258 16.198182 
L 189.58482 16.198182 
L 189.66566 126.161818 
L 189.827341 16.198182 
L 190.150702 16.198182 
L 190.312383 126.161818 
L 190.716584 126.161818 
L 190.878264 16.198182 
L 191.444146 16.198182 
L 191.524987 126.161818 
L 191.686667 16.198182 
L 192.010028 16.198182 
L 192.090869 126.161818 
L 192.252549 16.198182 
L 192.41423 16.198182 
L 192.57591 126.161818 
L 192.980112 126.161818 
L 193.141792 16.198182 
L 193.384313 16.198182 
L 193.545994 126.161818 
L 193.707674 16.198182 
L 193.788514 16.198182 
L 193.950195 126.161818 
L 195.971202 126.161818 
L 196.132882 16.198182 
L 200.498257 16.198182 
L 200.659938 126.161818 
L 209.956569 126.161818 
L 210.11825 16.198182 
L 210.279931 16.198182 
L 210.441611 126.161818 
L 210.522451 126.161818 
L 210.684132 16.198182 
L 211.088333 16.198182 
L 211.250014 126.161818 
L 213.998583 126.161818 
L 214.160264 16.198182 
L 214.241104 16.198182 
L 214.402785 126.161818 
L 215.049507 126.161818 
L 215.211187 16.198182 
L 215.615389 16.198182 
L 215.777069 126.161818 
L 216.10043 126.161818 
L 216.181271 16.198182 
L 216.342951 126.161818 
L 217.070514 126.161818 
L 217.232194 16.198182 
L 217.555555 16.198182 
L 217.717236 126.161818 
L 219.414882 126.161818 
L 219.576562 16.198182 
L 219.819083 16.198182 
L 219.980764 126.161818 
L 220.061604 126.161818 
L 220.223284 16.198182 
L 220.384965 16.198182 
L 220.465805 126.161818 
L 220.627486 16.198182 
L 220.708326 16.198182 
L 220.870007 126.161818 
L 223.941937 126.161818 
L 224.022777 16.198182 
L 224.184458 126.161818 
L 225.073701 126.161818 
L 225.235381 16.198182 
L 225.397062 126.161818 
L 225.477902 126.161818 
L 225.639583 16.198182 
L 226.286305 16.198182 
L 226.367145 126.161818 
L 226.528826 16.198182 
L 228.954034 16.198182 
L 229.034874 126.161818 
L 229.115715 16.198182 
L 229.196555 126.161818 
L 229.358235 16.198182 
L 229.519916 16.198182 
L 229.600756 126.161818 
L 229.762437 16.198182 
L 229.924117 16.198182 
L 230.004958 126.161818 
L 230.166638 16.198182 
L 231.783444 16.198182 
L 231.945124 126.161818 
L 246.738895 126.161818 
L 246.900575 16.198182 
L 247.385617 16.198182 
L 247.547297 126.161818 
L 247.789818 126.161818 
L 247.951499 16.198182 
L 249.568304 16.198182 
L 249.649145 126.161818 
L 249.729985 16.198182 
L 249.891665 126.161818 
L 250.942589 126.161818 
L 251.023429 16.198182 
L 251.18511 126.161818 
L 251.34679 126.161818 
L 251.508471 16.198182 
L 252.721075 16.198182 
L 252.882756 126.161818 
L 253.125276 126.161818 
L 253.286957 16.198182 
L 253.367797 16.198182 
L 253.529478 126.161818 
L 253.852839 126.161818 
L 253.933679 16.198182 
L 254.09536 126.161818 
L 254.1762 126.161818 
L 254.337881 16.198182 
L 254.822922 16.198182 
L 254.984603 126.161818 
L 256.278047 126.161818 
L 256.439728 16.198182 
L 257.08645 16.198182 
L 257.16729 126.161818 
L 257.328971 16.198182 
L 257.490651 16.198182 
L 257.652332 126.161818 
L 257.814012 126.161818 
L 257.975693 16.198182 
L 258.056533 16.198182 
L 258.218214 126.161818 
L 258.299054 16.198182 
L 258.460735 126.161818 
L 258.622415 16.198182 
L 258.784096 126.161818 
L 260.724262 126.161818 
L 260.805103 16.198182 
L 260.966783 126.161818 
L 261.451825 126.161818 
L 261.613505 16.198182 
L 262.098547 16.198182 
L 262.260227 126.161818 
L 262.421908 16.198182 
L 268.242408 16.198182 
L 268.404088 126.161818 
L 269.940054 126.161818 
L 270.101734 16.198182 
L 270.263415 126.161818 
L 270.344255 126.161818 
L 270.425095 16.198182 
L 270.586776 126.161818 
L 271.071818 126.161818 
L 271.233498 16.198182 
L 271.314338 16.198182 
L 271.476019 126.161818 
L 271.556859 126.161818 
L 271.71854 16.198182 
L 272.041901 16.198182 
L 272.203581 126.161818 
L 272.365262 126.161818 
L 272.526942 16.198182 
L 272.607783 16.198182 
L 272.769463 126.161818 
L 272.850304 126.161818 
L 273.011984 16.198182 
L 273.092824 126.161818 
L 273.254505 16.198182 
L 274.467109 16.198182 
L 274.62879 126.161818 
L 274.79047 16.198182 
L 276.488116 16.198182 
L 276.649796 126.161818 
L 276.730637 126.161818 
L 276.811477 16.198182 
L 276.892317 126.161818 
L 277.053998 16.198182 
L 277.215678 16.198182 
L 277.377359 126.161818 
L 280.125928 126.161818 
L 280.206769 16.198182 
L 280.368449 126.161818 
L 280.53013 16.198182 
L 285.299706 16.198182 
L 285.461386 126.161818 
L 310.845233 126.161818 
L 311.006913 16.198182 
L 311.411115 16.198182 
L 311.572795 126.161818 
L 311.896157 126.161818 
L 312.057837 16.198182 
L 313.108761 16.198182 
L 313.189601 126.161818 
L 313.351281 16.198182 
L 313.512962 126.161818 
L 313.593802 16.198182 
L 313.674643 126.161818 
L 313.755483 16.198182 
L 313.836323 126.161818 
L 313.998004 16.198182 
L 314.078844 126.161818 
L 314.240524 16.198182 
L 315.129768 16.198182 
L 315.210608 126.161818 
L 315.291448 16.198182 
L 315.453129 126.161818 
L 315.614809 126.161818 
L 315.77649 16.198182 
L 315.93817 126.161818 
L 316.180691 126.161818 
L 316.342372 16.198182 
L 316.423212 16.198182 
L 316.584892 126.161818 
L 316.827413 126.161818 
L 316.989094 16.198182 
L 319.737663 16.198182 
L 319.899344 126.161818 
L 320.061024 16.198182 
L 321.354469 16.198182 
L 321.516149 126.161818 
L 321.75867 126.161818 
L 321.920351 16.198182 
L 323.213795 16.198182 
L 323.375476 126.161818 
L 324.264719 126.161818 
L 324.426399 16.198182 
L 324.58808 126.161818 
L 324.74976 16.198182 
L 324.830601 16.198182 
L 324.992281 126.161818 
L 326.204885 126.161818 
L 326.366566 16.198182 
L 326.528246 16.198182 
L 326.689927 126.161818 
L 328.710934 126.161818 
L 328.872614 16.198182 
L 328.953455 16.198182 
L 329.034295 126.161818 
L 329.195975 16.198182 
L 329.276816 16.198182 
L 329.438496 126.161818 
L 330.246899 126.161818 
L 330.40858 16.198182 
L 330.731941 16.198182 
L 330.893621 126.161818 
L 332.429586 126.161818 
L 332.591267 16.198182 
L 332.752948 126.161818 
L 332.914628 16.198182 
L 333.076309 126.161818 
L 334.531434 126.161818 
L 334.693114 16.198182 
L 334.773954 16.198182 
L 334.935635 126.161818 
L 336.4716 126.161818 
L 336.55244 16.198182 
L 336.714121 126.161818 
L 336.875802 16.198182 
L 336.956642 16.198182 
L 337.118322 126.161818 
L 338.088406 126.161818 
L 338.250086 16.198182 
L 338.411767 126.161818 
L 340.675295 126.161818 
L 340.836975 16.198182 
L 340.998656 16.198182 
L 341.160336 126.161818 
L 341.322017 126.161818 
L 341.483697 16.198182 
L 342.21126 16.198182 
L 342.2921 126.161818 
L 342.453781 16.198182 
L 342.534621 16.198182 
L 342.615461 126.161818 
L 342.777142 16.198182 
L 343.100503 16.198182 
L 343.181343 126.161818 
L 343.343024 16.198182 
L 343.504704 126.161818 
L 343.666385 126.161818 
L 343.747225 16.198182 
L 343.828065 126.161818 
L 343.989746 16.198182 
L 344.070586 126.161818 
L 344.232267 16.198182 
L 344.393947 16.198182 
L 344.555628 126.161818 
L 344.636468 126.161818 
L 344.798149 16.198182 
L 345.12151 16.198182 
L 345.28319 126.161818 
L 348.516801 126.161818 
L 348.678482 16.198182 
L 362.98721 16.198182 
L 363.148891 126.161818 
L 364.280655 126.161818 
L 364.442335 16.198182 
L 364.765697 16.198182 
L 364.846537 126.161818 
L 365.008217 16.198182 
L 365.089058 126.161818 
L 365.169898 16.198182 
L 365.331578 126.161818 
L 366.220821 126.161818 
L 366.382502 16.198182 
L 366.544183 16.198182 
L 366.705863 126.161818 
L 366.867544 16.198182 
L 368.80771 16.198182 
L 368.969391 126.161818 
L 369.050231 126.161818 
L 369.211912 16.198182 
L 370.990398 16.198182 
L 370.990398 16.198182 
" style="fill:none;stroke:#ffa500;stroke-linecap:square;stroke-width:1.5;"/>
   </g>
   <g id="patch_3">
    <path d="M 30.103125 131.66 
L 30.103125 10.7 
" style="fill:none;stroke:#000000;stroke-linecap:square;stroke-linejoin:miter;stroke-width:0.8;"/>
   </g>
   <g id="patch_4">
    <path d="M 387.223125 131.66 
L 387.223125 10.7 
" style="fill:none;stroke:#000000;stroke-linecap:square;stroke-linejoin:miter;stroke-width:0.8;"/>
   </g>
   <g id="patch_5">
    <path d="M 30.103125 131.66 
L 387.223125 131.66 
" style="fill:none;stroke:#000000;stroke-linecap:square;stroke-linejoin:miter;stroke-width:0.8;"/>
   </g>
   <g id="patch_6">
    <path d="M 30.103125 10.7 
L 387.223125 10.7 
" style="fill:none;stroke:#000000;stroke-linecap:square;stroke-linejoin:miter;stroke-width:0.8;"/>
   </g>
   <g id="legend_1">
    <g id="patch_7">
     <path d="M 285.160625 80.158125 
L 380.223125 80.158125 
Q 382.223125 80.158125 382.223125 78.158125 
L 382.223125 64.201875 
Q 382.223125 62.201875 380.223125 62.201875 
L 285.160625 62.201875 
Q 283.160625 62.201875 283.160625 64.201875 
L 283.160625 78.158125 
Q 283.160625 80.158125 285.160625 80.158125 
z
" style="fill:#ffffff;opacity:0.8;stroke:#cccccc;stroke-linejoin:miter;"/>
    </g>
    <g id="line2d_17">
     <path d="M 287.160625 70.300312 
L 307.160625 70.300312 
" style="fill:none;stroke:#ffa500;stroke-linecap:square;stroke-width:1.5;"/>
    </g>
    <g id="line2d_18"/>
    <g id="text_16">
     <!-- y_pred_label -->
     <defs>
      <path d="M 32.171875 -5.078125 
Q 28.375 -14.84375 24.75 -17.8125 
Q 21.140625 -20.796875 15.09375 -20.796875 
L 7.90625 -20.796875 
L 7.90625 -13.28125 
L 13.1875 -13.28125 
Q 16.890625 -13.28125 18.9375 -11.515625 
Q 21 -9.765625 23.484375 -3.21875 
L 25.09375 0.875 
L 2.984375 54.6875 
L 12.5 54.6875 
L 29.59375 11.921875 
L 46.6875 54.6875 
L 56.203125 54.6875 
z
" id="DejaVuSans-121"/>
      <path d="M 50.984375 -16.609375 
L 50.984375 -23.578125 
L -0.984375 -23.578125 
L -0.984375 -16.609375 
z
" id="DejaVuSans-95"/>
      <path d="M 18.109375 8.203125 
L 18.109375 -20.796875 
L 9.078125 -20.796875 
L 9.078125 54.6875 
L 18.109375 54.6875 
L 18.109375 46.390625 
Q 20.953125 51.265625 25.265625 53.625 
Q 29.59375 56 35.59375 56 
Q 45.5625 56 51.78125 48.09375 
Q 58.015625 40.1875 58.015625 27.296875 
Q 58.015625 14.40625 51.78125 6.484375 
Q 45.5625 -1.421875 35.59375 -1.421875 
Q 29.59375 -1.421875 25.265625 0.953125 
Q 20.953125 3.328125 18.109375 8.203125 
z
M 48.6875 27.296875 
Q 48.6875 37.203125 44.609375 42.84375 
Q 40.53125 48.484375 33.40625 48.484375 
Q 26.265625 48.484375 22.1875 42.84375 
Q 18.109375 37.203125 18.109375 27.296875 
Q 18.109375 17.390625 22.1875 11.75 
Q 26.265625 6.109375 33.40625 6.109375 
Q 40.53125 6.109375 44.609375 11.75 
Q 48.6875 17.390625 48.6875 27.296875 
z
" id="DejaVuSans-112"/>
      <path d="M 41.109375 46.296875 
Q 39.59375 47.171875 37.8125 47.578125 
Q 36.03125 48 33.890625 48 
Q 26.265625 48 22.1875 43.046875 
Q 18.109375 38.09375 18.109375 28.8125 
L 18.109375 0 
L 9.078125 0 
L 9.078125 54.6875 
L 18.109375 54.6875 
L 18.109375 46.1875 
Q 20.953125 51.171875 25.484375 53.578125 
Q 30.03125 56 36.53125 56 
Q 37.453125 56 38.578125 55.875 
Q 39.703125 55.765625 41.0625 55.515625 
z
" id="DejaVuSans-114"/>
      <path d="M 56.203125 29.59375 
L 56.203125 25.203125 
L 14.890625 25.203125 
Q 15.484375 15.921875 20.484375 11.0625 
Q 25.484375 6.203125 34.421875 6.203125 
Q 39.59375 6.203125 44.453125 7.46875 
Q 49.3125 8.734375 54.109375 11.28125 
L 54.109375 2.78125 
Q 49.265625 0.734375 44.1875 -0.34375 
Q 39.109375 -1.421875 33.890625 -1.421875 
Q 20.796875 -1.421875 13.15625 6.1875 
Q 5.515625 13.8125 5.515625 26.8125 
Q 5.515625 40.234375 12.765625 48.109375 
Q 20.015625 56 32.328125 56 
Q 43.359375 56 49.78125 48.890625 
Q 56.203125 41.796875 56.203125 29.59375 
z
M 47.21875 32.234375 
Q 47.125 39.59375 43.09375 43.984375 
Q 39.0625 48.390625 32.421875 48.390625 
Q 24.90625 48.390625 20.390625 44.140625 
Q 15.875 39.890625 15.1875 32.171875 
z
" id="DejaVuSans-101"/>
      <path d="M 45.40625 46.390625 
L 45.40625 75.984375 
L 54.390625 75.984375 
L 54.390625 0 
L 45.40625 0 
L 45.40625 8.203125 
Q 42.578125 3.328125 38.25 0.953125 
Q 33.9375 -1.421875 27.875 -1.421875 
Q 17.96875 -1.421875 11.734375 6.484375 
Q 5.515625 14.40625 5.515625 27.296875 
Q 5.515625 40.1875 11.734375 48.09375 
Q 17.96875 56 27.875 56 
Q 33.9375 56 38.25 53.625 
Q 42.578125 51.265625 45.40625 46.390625 
z
M 14.796875 27.296875 
Q 14.796875 17.390625 18.875 11.75 
Q 22.953125 6.109375 30.078125 6.109375 
Q 37.203125 6.109375 41.296875 11.75 
Q 45.40625 17.390625 45.40625 27.296875 
Q 45.40625 37.203125 41.296875 42.84375 
Q 37.203125 48.484375 30.078125 48.484375 
Q 22.953125 48.484375 18.875 42.84375 
Q 14.796875 37.203125 14.796875 27.296875 
z
" id="DejaVuSans-100"/>
      <path d="M 9.421875 75.984375 
L 18.40625 75.984375 
L 18.40625 0 
L 9.421875 0 
z
" id="DejaVuSans-108"/>
      <path d="M 34.28125 27.484375 
Q 23.390625 27.484375 19.1875 25 
Q 14.984375 22.515625 14.984375 16.5 
Q 14.984375 11.71875 18.140625 8.90625 
Q 21.296875 6.109375 26.703125 6.109375 
Q 34.1875 6.109375 38.703125 11.40625 
Q 43.21875 16.703125 43.21875 25.484375 
L 43.21875 27.484375 
z
M 52.203125 31.203125 
L 52.203125 0 
L 43.21875 0 
L 43.21875 8.296875 
Q 40.140625 3.328125 35.546875 0.953125 
Q 30.953125 -1.421875 24.3125 -1.421875 
Q 15.921875 -1.421875 10.953125 3.296875 
Q 6 8.015625 6 15.921875 
Q 6 25.140625 12.171875 29.828125 
Q 18.359375 34.515625 30.609375 34.515625 
L 43.21875 34.515625 
L 43.21875 35.40625 
Q 43.21875 41.609375 39.140625 45 
Q 35.0625 48.390625 27.6875 48.390625 
Q 23 48.390625 18.546875 47.265625 
Q 14.109375 46.140625 10.015625 43.890625 
L 10.015625 52.203125 
Q 14.9375 54.109375 19.578125 55.046875 
Q 24.21875 56 28.609375 56 
Q 40.484375 56 46.34375 49.84375 
Q 52.203125 43.703125 52.203125 31.203125 
z
" id="DejaVuSans-97"/>
      <path d="M 48.6875 27.296875 
Q 48.6875 37.203125 44.609375 42.84375 
Q 40.53125 48.484375 33.40625 48.484375 
Q 26.265625 48.484375 22.1875 42.84375 
Q 18.109375 37.203125 18.109375 27.296875 
Q 18.109375 17.390625 22.1875 11.75 
Q 26.265625 6.109375 33.40625 6.109375 
Q 40.53125 6.109375 44.609375 11.75 
Q 48.6875 17.390625 48.6875 27.296875 
z
M 18.109375 46.390625 
Q 20.953125 51.265625 25.265625 53.625 
Q 29.59375 56 35.59375 56 
Q 45.5625 56 51.78125 48.09375 
Q 58.015625 40.1875 58.015625 27.296875 
Q 58.015625 14.40625 51.78125 6.484375 
Q 45.5625 -1.421875 35.59375 -1.421875 
Q 29.59375 -1.421875 25.265625 0.953125 
Q 20.953125 3.328125 18.109375 8.203125 
L 18.109375 0 
L 9.078125 0 
L 9.078125 75.984375 
L 18.109375 75.984375 
z
" id="DejaVuSans-98"/>
     </defs>
     <g transform="translate(315.160625 73.800312)scale(0.1 -0.1)">
      <use xlink:href="#DejaVuSans-121"/>
      <use x="59.179688" xlink:href="#DejaVuSans-95"/>
      <use x="109.179688" xlink:href="#DejaVuSans-112"/>
      <use x="172.65625" xlink:href="#DejaVuSans-114"/>
      <use x="213.738281" xlink:href="#DejaVuSans-101"/>
      <use x="275.261719" xlink:href="#DejaVuSans-100"/>
      <use x="338.738281" xlink:href="#DejaVuSans-95"/>
      <use x="388.738281" xlink:href="#DejaVuSans-108"/>
      <use x="416.521484" xlink:href="#DejaVuSans-97"/>
      <use x="477.800781" xlink:href="#DejaVuSans-98"/>
      <use x="541.277344" xlink:href="#DejaVuSans-101"/>
      <use x="602.800781" xlink:href="#DejaVuSans-108"/>
     </g>
    </g>
   </g>
  </g>
  <g id="axes_2">
   <g id="patch_8">
    <path d="M 30.103125 276.812 
L 387.223125 276.812 
L 387.223125 155.852 
L 30.103125 155.852 
z
" style="fill:#ffffff;"/>
   </g>
   <g id="PathCollection_1">
    <defs>
     <path d="M 0 1.414214 
C 0.375054 1.414214 0.734797 1.265203 1 1 
C 1.265203 0.734797 1.414214 0.375054 1.414214 0 
C 1.414214 -0.375054 1.265203 -0.734797 1 -1 
C 0.734797 -1.265203 0.375054 -1.414214 0 -1.414214 
C -0.375054 -1.414214 -0.734797 -1.265203 -1 -1 
C -1.265203 -0.734797 -1.414214 -0.375054 -1.414214 0 
C -1.414214 0.375054 -1.265203 0.734797 -1 1 
C -0.734797 1.265203 -0.375054 1.414214 0 1.414214 
z
" id="m0b1cd43de4" style="stroke:#ff0000;"/>
    </defs>
    <g clip-path="url(#p3cc3bfd764)">
     <use style="fill:#ff0000;stroke:#ff0000;" x="62.503907" xlink:href="#m0b1cd43de4" y="162.359074"/>
     <use style="fill:#ff0000;stroke:#ff0000;" x="66.060879" xlink:href="#m0b1cd43de4" y="162.359074"/>
     <use style="fill:#ff0000;stroke:#ff0000;" x="71.638858" xlink:href="#m0b1cd43de4" y="162.359074"/>
     <use style="fill:#ff0000;stroke:#ff0000;" x="95.001698" xlink:href="#m0b1cd43de4" y="162.359074"/>
     <use style="fill:#ff0000;stroke:#ff0000;" x="101.953962" xlink:href="#m0b1cd43de4" y="162.359074"/>
     <use style="fill:#ff0000;stroke:#ff0000;" x="107.4511" xlink:href="#m0b1cd43de4" y="162.359074"/>
     <use style="fill:#ff0000;stroke:#ff0000;" x="123.861676" xlink:href="#m0b1cd43de4" y="162.359074"/>
     <use style="fill:#ff0000;stroke:#ff0000;" x="127.82285" xlink:href="#m0b1cd43de4" y="162.359074"/>
     <use style="fill:#ff0000;stroke:#ff0000;" x="130.086377" xlink:href="#m0b1cd43de4" y="162.359074"/>
     <use style="fill:#ff0000;stroke:#ff0000;" x="132.188225" xlink:href="#m0b1cd43de4" y="162.359074"/>
     <use style="fill:#ff0000;stroke:#ff0000;" x="136.149398" xlink:href="#m0b1cd43de4" y="162.359074"/>
     <use style="fill:#ff0000;stroke:#ff0000;" x="153.368377" xlink:href="#m0b1cd43de4" y="162.359074"/>
     <use style="fill:#ff0000;stroke:#ff0000;" x="156.925349" xlink:href="#m0b1cd43de4" y="162.359074"/>
     <use style="fill:#ff0000;stroke:#ff0000;" x="159.916439" xlink:href="#m0b1cd43de4" y="162.359074"/>
     <use style="fill:#ff0000;stroke:#ff0000;" x="215.534548" xlink:href="#m0b1cd43de4" y="162.359074"/>
     <use style="fill:#ff0000;stroke:#ff0000;" x="217.555555" xlink:href="#m0b1cd43de4" y="162.359074"/>
     <use style="fill:#ff0000;stroke:#ff0000;" x="219.899923" xlink:href="#m0b1cd43de4" y="162.359074"/>
     <use style="fill:#ff0000;stroke:#ff0000;" x="225.962944" xlink:href="#m0b1cd43de4" y="162.359074"/>
     <use style="fill:#ff0000;stroke:#ff0000;" x="247.223936" xlink:href="#m0b1cd43de4" y="162.359074"/>
     <use style="fill:#ff0000;stroke:#ff0000;" x="251.831832" xlink:href="#m0b1cd43de4" y="162.359074"/>
     <use style="fill:#ff0000;stroke:#ff0000;" x="256.763089" xlink:href="#m0b1cd43de4" y="162.359074"/>
     <use style="fill:#ff0000;stroke:#ff0000;" x="261.936866" xlink:href="#m0b1cd43de4" y="162.359074"/>
     <use style="fill:#ff0000;stroke:#ff0000;" x="311.330275" xlink:href="#m0b1cd43de4" y="162.359074"/>
     <use style="fill:#ff0000;stroke:#ff0000;" x="312.381198" xlink:href="#m0b1cd43de4" y="162.359074"/>
     <use style="fill:#ff0000;stroke:#ff0000;" x="329.276816" xlink:href="#m0b1cd43de4" y="162.359074"/>
     <use style="fill:#ff0000;stroke:#ff0000;" x="330.731941" xlink:href="#m0b1cd43de4" y="162.359074"/>
     <use style="fill:#ff0000;stroke:#ff0000;" x="341.807058" xlink:href="#m0b1cd43de4" y="162.359074"/>
     <use style="fill:#ff0000;stroke:#ff0000;" x="349.001843" xlink:href="#m0b1cd43de4" y="162.359074"/>
    </g>
   </g>
   <g id="matplotlib.axis_3">
    <g id="xtick_10">
     <g id="line2d_19">
      <g>
       <use style="stroke:#000000;stroke-width:0.8;" x="43.425602" xlink:href="#m01c0008cf7" y="276.812"/>
      </g>
     </g>
     <g id="text_17">
      <!-- 8000 -->
      <g transform="translate(30.700602 291.410437)scale(0.1 -0.1)">
       <use xlink:href="#DejaVuSans-56"/>
       <use x="63.623047" xlink:href="#DejaVuSans-48"/>
       <use x="127.246094" xlink:href="#DejaVuSans-48"/>
       <use x="190.869141" xlink:href="#DejaVuSans-48"/>
      </g>
     </g>
    </g>
    <g id="xtick_11">
     <g id="line2d_20">
      <g>
       <use style="stroke:#000000;stroke-width:0.8;" x="83.84574" xlink:href="#m01c0008cf7" y="276.812"/>
      </g>
     </g>
     <g id="text_18">
      <!-- 8500 -->
      <g transform="translate(71.12074 291.410437)scale(0.1 -0.1)">
       <use xlink:href="#DejaVuSans-56"/>
       <use x="63.623047" xlink:href="#DejaVuSans-53"/>
       <use x="127.246094" xlink:href="#DejaVuSans-48"/>
       <use x="190.869141" xlink:href="#DejaVuSans-48"/>
      </g>
     </g>
    </g>
    <g id="xtick_12">
     <g id="line2d_21">
      <g>
       <use style="stroke:#000000;stroke-width:0.8;" x="124.265878" xlink:href="#m01c0008cf7" y="276.812"/>
      </g>
     </g>
     <g id="text_19">
      <!-- 9000 -->
      <g transform="translate(111.540878 291.410437)scale(0.1 -0.1)">
       <use xlink:href="#DejaVuSans-57"/>
       <use x="63.623047" xlink:href="#DejaVuSans-48"/>
       <use x="127.246094" xlink:href="#DejaVuSans-48"/>
       <use x="190.869141" xlink:href="#DejaVuSans-48"/>
      </g>
     </g>
    </g>
    <g id="xtick_13">
     <g id="line2d_22">
      <g>
       <use style="stroke:#000000;stroke-width:0.8;" x="164.686015" xlink:href="#m01c0008cf7" y="276.812"/>
      </g>
     </g>
     <g id="text_20">
      <!-- 9500 -->
      <g transform="translate(151.961015 291.410437)scale(0.1 -0.1)">
       <use xlink:href="#DejaVuSans-57"/>
       <use x="63.623047" xlink:href="#DejaVuSans-53"/>
       <use x="127.246094" xlink:href="#DejaVuSans-48"/>
       <use x="190.869141" xlink:href="#DejaVuSans-48"/>
      </g>
     </g>
    </g>
    <g id="xtick_14">
     <g id="line2d_23">
      <g>
       <use style="stroke:#000000;stroke-width:0.8;" x="205.106153" xlink:href="#m01c0008cf7" y="276.812"/>
      </g>
     </g>
     <g id="text_21">
      <!-- 10000 -->
      <g transform="translate(189.199903 291.410437)scale(0.1 -0.1)">
       <use xlink:href="#DejaVuSans-49"/>
       <use x="63.623047" xlink:href="#DejaVuSans-48"/>
       <use x="127.246094" xlink:href="#DejaVuSans-48"/>
       <use x="190.869141" xlink:href="#DejaVuSans-48"/>
       <use x="254.492188" xlink:href="#DejaVuSans-48"/>
      </g>
     </g>
    </g>
    <g id="xtick_15">
     <g id="line2d_24">
      <g>
       <use style="stroke:#000000;stroke-width:0.8;" x="245.526291" xlink:href="#m01c0008cf7" y="276.812"/>
      </g>
     </g>
     <g id="text_22">
      <!-- 10500 -->
      <g transform="translate(229.620041 291.410437)scale(0.1 -0.1)">
       <use xlink:href="#DejaVuSans-49"/>
       <use x="63.623047" xlink:href="#DejaVuSans-48"/>
       <use x="127.246094" xlink:href="#DejaVuSans-53"/>
       <use x="190.869141" xlink:href="#DejaVuSans-48"/>
       <use x="254.492188" xlink:href="#DejaVuSans-48"/>
      </g>
     </g>
    </g>
    <g id="xtick_16">
     <g id="line2d_25">
      <g>
       <use style="stroke:#000000;stroke-width:0.8;" x="285.946428" xlink:href="#m01c0008cf7" y="276.812"/>
      </g>
     </g>
     <g id="text_23">
      <!-- 11000 -->
      <g transform="translate(270.040178 291.410437)scale(0.1 -0.1)">
       <use xlink:href="#DejaVuSans-49"/>
       <use x="63.623047" xlink:href="#DejaVuSans-49"/>
       <use x="127.246094" xlink:href="#DejaVuSans-48"/>
       <use x="190.869141" xlink:href="#DejaVuSans-48"/>
       <use x="254.492188" xlink:href="#DejaVuSans-48"/>
      </g>
     </g>
    </g>
    <g id="xtick_17">
     <g id="line2d_26">
      <g>
       <use style="stroke:#000000;stroke-width:0.8;" x="326.366566" xlink:href="#m01c0008cf7" y="276.812"/>
      </g>
     </g>
     <g id="text_24">
      <!-- 11500 -->
      <g transform="translate(310.460316 291.410437)scale(0.1 -0.1)">
       <use xlink:href="#DejaVuSans-49"/>
       <use x="63.623047" xlink:href="#DejaVuSans-49"/>
       <use x="127.246094" xlink:href="#DejaVuSans-53"/>
       <use x="190.869141" xlink:href="#DejaVuSans-48"/>
       <use x="254.492188" xlink:href="#DejaVuSans-48"/>
      </g>
     </g>
    </g>
    <g id="xtick_18">
     <g id="line2d_27">
      <g>
       <use style="stroke:#000000;stroke-width:0.8;" x="366.786703" xlink:href="#m01c0008cf7" y="276.812"/>
      </g>
     </g>
     <g id="text_25">
      <!-- 12000 -->
      <g transform="translate(350.880453 291.410437)scale(0.1 -0.1)">
       <use xlink:href="#DejaVuSans-49"/>
       <use x="63.623047" xlink:href="#DejaVuSans-50"/>
       <use x="127.246094" xlink:href="#DejaVuSans-48"/>
       <use x="190.869141" xlink:href="#DejaVuSans-48"/>
       <use x="254.492188" xlink:href="#DejaVuSans-48"/>
      </g>
     </g>
    </g>
   </g>
   <g id="matplotlib.axis_4">
    <g id="ytick_7">
     <g id="line2d_28">
      <g>
       <use style="stroke:#000000;stroke-width:0.8;" x="30.103125" xlink:href="#m620199c3d4" y="271.313818"/>
      </g>
     </g>
     <g id="text_26">
      <!-- 0.0 -->
      <g transform="translate(7.2 275.113037)scale(0.1 -0.1)">
       <use xlink:href="#DejaVuSans-48"/>
       <use x="63.623047" xlink:href="#DejaVuSans-46"/>
       <use x="95.410156" xlink:href="#DejaVuSans-48"/>
      </g>
     </g>
    </g>
    <g id="ytick_8">
     <g id="line2d_29">
      <g>
       <use style="stroke:#000000;stroke-width:0.8;" x="30.103125" xlink:href="#m620199c3d4" y="249.522869"/>
      </g>
     </g>
     <g id="text_27">
      <!-- 0.2 -->
      <g transform="translate(7.2 253.322088)scale(0.1 -0.1)">
       <use xlink:href="#DejaVuSans-48"/>
       <use x="63.623047" xlink:href="#DejaVuSans-46"/>
       <use x="95.410156" xlink:href="#DejaVuSans-50"/>
      </g>
     </g>
    </g>
    <g id="ytick_9">
     <g id="line2d_30">
      <g>
       <use style="stroke:#000000;stroke-width:0.8;" x="30.103125" xlink:href="#m620199c3d4" y="227.73192"/>
      </g>
     </g>
     <g id="text_28">
      <!-- 0.4 -->
      <g transform="translate(7.2 231.531139)scale(0.1 -0.1)">
       <use xlink:href="#DejaVuSans-48"/>
       <use x="63.623047" xlink:href="#DejaVuSans-46"/>
       <use x="95.410156" xlink:href="#DejaVuSans-52"/>
      </g>
     </g>
    </g>
    <g id="ytick_10">
     <g id="line2d_31">
      <g>
       <use style="stroke:#000000;stroke-width:0.8;" x="30.103125" xlink:href="#m620199c3d4" y="205.940971"/>
      </g>
     </g>
     <g id="text_29">
      <!-- 0.6 -->
      <g transform="translate(7.2 209.74019)scale(0.1 -0.1)">
       <use xlink:href="#DejaVuSans-48"/>
       <use x="63.623047" xlink:href="#DejaVuSans-46"/>
       <use x="95.410156" xlink:href="#DejaVuSans-54"/>
      </g>
     </g>
    </g>
    <g id="ytick_11">
     <g id="line2d_32">
      <g>
       <use style="stroke:#000000;stroke-width:0.8;" x="30.103125" xlink:href="#m620199c3d4" y="184.150022"/>
      </g>
     </g>
     <g id="text_30">
      <!-- 0.8 -->
      <g transform="translate(7.2 187.949241)scale(0.1 -0.1)">
       <use xlink:href="#DejaVuSans-48"/>
       <use x="63.623047" xlink:href="#DejaVuSans-46"/>
       <use x="95.410156" xlink:href="#DejaVuSans-56"/>
      </g>
     </g>
    </g>
    <g id="ytick_12">
     <g id="line2d_33">
      <g>
       <use style="stroke:#000000;stroke-width:0.8;" x="30.103125" xlink:href="#m620199c3d4" y="162.359074"/>
      </g>
     </g>
     <g id="text_31">
      <!-- 1.0 -->
      <g transform="translate(7.2 166.158292)scale(0.1 -0.1)">
       <use xlink:href="#DejaVuSans-49"/>
       <use x="63.623047" xlink:href="#DejaVuSans-46"/>
       <use x="95.410156" xlink:href="#DejaVuSans-48"/>
      </g>
     </g>
    </g>
   </g>
   <g id="line2d_34">
    <path clip-path="url(#p3cc3bfd764)" d="M 46.335852 271.313818 
L 68.647768 271.313818 
L 68.809449 162.359074 
L 76.731796 162.359074 
L 76.893476 271.313818 
L 103.247406 271.313818 
L 103.409087 162.359074 
L 111.331434 162.359074 
L 111.493114 271.313818 
L 133.966711 271.313818 
L 134.128391 162.359074 
L 142.050738 162.359074 
L 142.212419 271.313818 
L 164.200974 271.313818 
L 164.362654 162.359074 
L 172.285001 162.359074 
L 172.446682 271.313818 
L 192.41423 271.313818 
L 192.57591 162.359074 
L 200.498257 162.359074 
L 200.659938 271.313818 
L 223.699416 271.313818 
L 223.861097 162.359074 
L 231.783444 162.359074 
L 231.945124 271.313818 
L 260.15838 271.313818 
L 260.320061 162.359074 
L 268.242408 162.359074 
L 268.404088 271.313818 
L 277.215678 271.313818 
L 277.377359 162.359074 
L 285.299706 162.359074 
L 285.461386 271.313818 
L 315.129768 271.313818 
L 315.291448 162.359074 
L 323.213795 162.359074 
L 323.375476 271.313818 
L 362.98721 271.313818 
L 363.148891 162.359074 
L 370.990398 162.359074 
L 370.990398 162.359074 
" style="fill:none;stroke:#ffa500;stroke-linecap:square;stroke-width:1.5;"/>
   </g>
   <g id="patch_9">
    <path d="M 30.103125 276.812 
L 30.103125 155.852 
" style="fill:none;stroke:#000000;stroke-linecap:square;stroke-linejoin:miter;stroke-width:0.8;"/>
   </g>
   <g id="patch_10">
    <path d="M 387.223125 276.812 
L 387.223125 155.852 
" style="fill:none;stroke:#000000;stroke-linecap:square;stroke-linejoin:miter;stroke-width:0.8;"/>
   </g>
   <g id="patch_11">
    <path d="M 30.103125 276.812 
L 387.223125 276.812 
" style="fill:none;stroke:#000000;stroke-linecap:square;stroke-linejoin:miter;stroke-width:0.8;"/>
   </g>
   <g id="patch_12">
    <path d="M 30.103125 155.852 
L 387.223125 155.852 
" style="fill:none;stroke:#000000;stroke-linecap:square;stroke-linejoin:miter;stroke-width:0.8;"/>
   </g>
   <g id="legend_2">
    <g id="patch_13">
     <path d="M 288.915313 232.649187 
L 380.223125 232.649187 
Q 382.223125 232.649187 382.223125 230.649187 
L 382.223125 202.014812 
Q 382.223125 200.014812 380.223125 200.014812 
L 288.915313 200.014812 
Q 286.915313 200.014812 286.915313 202.014812 
L 286.915313 230.649187 
Q 286.915313 232.649187 288.915313 232.649187 
z
" style="fill:#ffffff;opacity:0.8;stroke:#cccccc;stroke-linejoin:miter;"/>
    </g>
    <g id="line2d_35">
     <path d="M 290.915313 208.11325 
L 310.915313 208.11325 
" style="fill:none;stroke:#ffa500;stroke-linecap:square;stroke-width:1.5;"/>
    </g>
    <g id="line2d_36"/>
    <g id="text_32">
     <!-- y_test_label -->
     <defs>
      <path d="M 18.3125 70.21875 
L 18.3125 54.6875 
L 36.8125 54.6875 
L 36.8125 47.703125 
L 18.3125 47.703125 
L 18.3125 18.015625 
Q 18.3125 11.328125 20.140625 9.421875 
Q 21.96875 7.515625 27.59375 7.515625 
L 36.8125 7.515625 
L 36.8125 0 
L 27.59375 0 
Q 17.1875 0 13.234375 3.875 
Q 9.28125 7.765625 9.28125 18.015625 
L 9.28125 47.703125 
L 2.6875 47.703125 
L 2.6875 54.6875 
L 9.28125 54.6875 
L 9.28125 70.21875 
z
" id="DejaVuSans-116"/>
      <path d="M 44.28125 53.078125 
L 44.28125 44.578125 
Q 40.484375 46.53125 36.375 47.5 
Q 32.28125 48.484375 27.875 48.484375 
Q 21.1875 48.484375 17.84375 46.4375 
Q 14.5 44.390625 14.5 40.28125 
Q 14.5 37.15625 16.890625 35.375 
Q 19.28125 33.59375 26.515625 31.984375 
L 29.59375 31.296875 
Q 39.15625 29.25 43.1875 25.515625 
Q 47.21875 21.78125 47.21875 15.09375 
Q 47.21875 7.46875 41.1875 3.015625 
Q 35.15625 -1.421875 24.609375 -1.421875 
Q 20.21875 -1.421875 15.453125 -0.5625 
Q 10.6875 0.296875 5.421875 2 
L 5.421875 11.28125 
Q 10.40625 8.6875 15.234375 7.390625 
Q 20.0625 6.109375 24.8125 6.109375 
Q 31.15625 6.109375 34.5625 8.28125 
Q 37.984375 10.453125 37.984375 14.40625 
Q 37.984375 18.0625 35.515625 20.015625 
Q 33.0625 21.96875 24.703125 23.78125 
L 21.578125 24.515625 
Q 13.234375 26.265625 9.515625 29.90625 
Q 5.8125 33.546875 5.8125 39.890625 
Q 5.8125 47.609375 11.28125 51.796875 
Q 16.75 56 26.8125 56 
Q 31.78125 56 36.171875 55.265625 
Q 40.578125 54.546875 44.28125 53.078125 
z
" id="DejaVuSans-115"/>
     </defs>
     <g transform="translate(318.915313 211.61325)scale(0.1 -0.1)">
      <use xlink:href="#DejaVuSans-121"/>
      <use x="59.179688" xlink:href="#DejaVuSans-95"/>
      <use x="109.179688" xlink:href="#DejaVuSans-116"/>
      <use x="148.388672" xlink:href="#DejaVuSans-101"/>
      <use x="209.912109" xlink:href="#DejaVuSans-115"/>
      <use x="262.011719" xlink:href="#DejaVuSans-116"/>
      <use x="301.220703" xlink:href="#DejaVuSans-95"/>
      <use x="351.220703" xlink:href="#DejaVuSans-108"/>
      <use x="379.003906" xlink:href="#DejaVuSans-97"/>
      <use x="440.283203" xlink:href="#DejaVuSans-98"/>
      <use x="503.759766" xlink:href="#DejaVuSans-101"/>
      <use x="565.283203" xlink:href="#DejaVuSans-108"/>
     </g>
    </g>
    <g id="PathCollection_2">
     <g>
      <use style="fill:#ff0000;stroke:#ff0000;" x="300.915313" xlink:href="#m0b1cd43de4" y="223.9445"/>
     </g>
    </g>
    <g id="text_33">
     <!-- warning -->
     <defs>
      <path d="M 4.203125 54.6875 
L 13.1875 54.6875 
L 24.421875 12.015625 
L 35.59375 54.6875 
L 46.1875 54.6875 
L 57.421875 12.015625 
L 68.609375 54.6875 
L 77.59375 54.6875 
L 63.28125 0 
L 52.6875 0 
L 40.921875 44.828125 
L 29.109375 0 
L 18.5 0 
z
" id="DejaVuSans-119"/>
      <path d="M 54.890625 33.015625 
L 54.890625 0 
L 45.90625 0 
L 45.90625 32.71875 
Q 45.90625 40.484375 42.875 44.328125 
Q 39.84375 48.1875 33.796875 48.1875 
Q 26.515625 48.1875 22.3125 43.546875 
Q 18.109375 38.921875 18.109375 30.90625 
L 18.109375 0 
L 9.078125 0 
L 9.078125 54.6875 
L 18.109375 54.6875 
L 18.109375 46.1875 
Q 21.34375 51.125 25.703125 53.5625 
Q 30.078125 56 35.796875 56 
Q 45.21875 56 50.046875 50.171875 
Q 54.890625 44.34375 54.890625 33.015625 
z
" id="DejaVuSans-110"/>
      <path d="M 9.421875 54.6875 
L 18.40625 54.6875 
L 18.40625 0 
L 9.421875 0 
z
M 9.421875 75.984375 
L 18.40625 75.984375 
L 18.40625 64.59375 
L 9.421875 64.59375 
z
" id="DejaVuSans-105"/>
      <path d="M 45.40625 27.984375 
Q 45.40625 37.75 41.375 43.109375 
Q 37.359375 48.484375 30.078125 48.484375 
Q 22.859375 48.484375 18.828125 43.109375 
Q 14.796875 37.75 14.796875 27.984375 
Q 14.796875 18.265625 18.828125 12.890625 
Q 22.859375 7.515625 30.078125 7.515625 
Q 37.359375 7.515625 41.375 12.890625 
Q 45.40625 18.265625 45.40625 27.984375 
z
M 54.390625 6.78125 
Q 54.390625 -7.171875 48.1875 -13.984375 
Q 42 -20.796875 29.203125 -20.796875 
Q 24.46875 -20.796875 20.265625 -20.09375 
Q 16.0625 -19.390625 12.109375 -17.921875 
L 12.109375 -9.1875 
Q 16.0625 -11.328125 19.921875 -12.34375 
Q 23.78125 -13.375 27.78125 -13.375 
Q 36.625 -13.375 41.015625 -8.765625 
Q 45.40625 -4.15625 45.40625 5.171875 
L 45.40625 9.625 
Q 42.625 4.78125 38.28125 2.390625 
Q 33.9375 0 27.875 0 
Q 17.828125 0 11.671875 7.65625 
Q 5.515625 15.328125 5.515625 27.984375 
Q 5.515625 40.671875 11.671875 48.328125 
Q 17.828125 56 27.875 56 
Q 33.9375 56 38.28125 53.609375 
Q 42.625 51.21875 45.40625 46.390625 
L 45.40625 54.6875 
L 54.390625 54.6875 
z
" id="DejaVuSans-103"/>
     </defs>
     <g transform="translate(318.915313 226.5695)scale(0.1 -0.1)">
      <use xlink:href="#DejaVuSans-119"/>
      <use x="81.787109" xlink:href="#DejaVuSans-97"/>
      <use x="143.066406" xlink:href="#DejaVuSans-114"/>
      <use x="184.164062" xlink:href="#DejaVuSans-110"/>
      <use x="247.542969" xlink:href="#DejaVuSans-105"/>
      <use x="275.326172" xlink:href="#DejaVuSans-110"/>
      <use x="338.705078" xlink:href="#DejaVuSans-103"/>
     </g>
    </g>
   </g>
  </g>
 </g>
 <defs>
  <clipPath id="p4c4e13b1a1">
   <rect height="120.96" width="357.12" x="30.103125" y="10.7"/>
  </clipPath>
  <clipPath id="p3cc3bfd764">
   <rect height="120.96" width="357.12" x="30.103125" y="155.852"/>
  </clipPath>
 </defs>
</svg>
